<?xml version="1.0" encoding="UTF-8" standalone="no"?>
<!-- Created with Inkscape (http://www.inkscape.org/) -->

<svg
   width="2.8487034mm"
   height="3.0006881mm"
   viewBox="0 0 2.8487033 3.0006881"
   version="1.1"
   id="svg5"
   xml:space="preserve"
   inkscape:version="1.2.2 (732a01da63, 2022-12-09)"
   sodipodi:docname="puffinBullet.svg"
   xmlns:inkscape="http://www.inkscape.org/namespaces/inkscape"
   xmlns:sodipodi="http://sodipodi.sourceforge.net/DTD/sodipodi-0.dtd"
   xmlns="http://www.w3.org/2000/svg"
   xmlns:svg="http://www.w3.org/2000/svg"><sodipodi:namedview
     id="namedview7"
     pagecolor="#ffffff"
     bordercolor="#000000"
     borderopacity="0.25"
     inkscape:showpageshadow="2"
     inkscape:pageopacity="0.0"
     inkscape:pagecheckerboard="0"
     inkscape:deskcolor="#d1d1d1"
     inkscape:document-units="mm"
     showgrid="false"
     inkscape:zoom="11.500772"
     inkscape:cx="6.3908751"
     inkscape:cy="-3.5215026"
     inkscape:window-width="1920"
     inkscape:window-height="991"
     inkscape:window-x="-9"
     inkscape:window-y="-9"
     inkscape:window-maximized="1"
     inkscape:current-layer="layer1" /><defs
     id="defs2" /><g
     inkscape:label="Layer 1"
     inkscape:groupmode="layer"
     id="layer1"
     transform="translate(-115.1286,-181.58692)"><path
       id="path302"
       style="fill:#b1391d;fill-opacity:1;stroke-width:0.0445281"
       d="m 115.56765,181.5877 c 0,0 -0.0579,0.13407 -0.0982,0.33031 -0.0938,0.45648 -0.24085,1.27472 -0.30161,1.70171 -0.0197,0.0974 -0.0302,0.23194 -0.028,0.25239 -1.2e-4,0.002 2e-5,0.003 1.6e-4,0.004 3.5e-4,0.0114 0.002,0.0153 0.006,0.0115 -0.006,0.16426 -0.008,0.3225 -0.0174,0.4885 0.10188,-0.0458 0.13238,-0.0336 0.29917,0.064 0.24954,0.14623 0.54963,0.18123 0.99502,0.11609 0.40678,-0.0595 1.32323,-0.0793 1.46813,-0.0318 0.0951,0.0311 0.0975,0.0241 0.0739,-0.20394 -0.1098,-1.06099 -0.56681,-1.74672 -1.47273,-2.20987 -0.2499,-0.12776 -0.46714,-0.253 -0.48277,-0.2783 -0.0157,-0.0254 -0.13401,-0.0927 -0.26309,-0.14977 -0.0624,-0.0276 -0.12543,-0.0618 -0.17811,-0.0956 z m 0.1362,0.20907 c 0.002,-1.8e-4 0.004,-1.6e-4 0.006,0 0.0254,0.002 0.0659,0.0301 0.1215,0.0825 0.0512,0.0481 0.18278,0.13484 0.2923,0.19265 0.10956,0.0579 0.26172,0.18702 0.33822,0.28708 0.27517,0.35992 0.49557,1.18132 0.39049,1.45517 -0.0503,0.13093 -0.1066,0.0716 -0.1066,-0.11237 0,-0.21187 -0.0602,-0.47386 -0.15395,-0.71789 -0.13102,-0.35228 -0.30284,-0.5776 -0.59151,-0.78823 l 0.0708,0.50512 c 0.0131,0.41198 0.002,0.53536 -0.0616,0.66896 -0.11309,0.23834 -0.1861,0.14178 -0.11749,-0.15542 0.0773,-0.33466 0.0646,-0.46982 -0.0821,-0.88612 -0.1268,-0.35961 -0.16254,-0.5262 -0.10572,-0.53146 z m -0.15898,0.20506 c 0.0653,0.0781 0.12289,0.16295 0.17071,0.25387 0.17634,0.33524 0.22915,0.87195 0.0858,0.87195 -0.12848,0 -0.34995,0.25488 -0.5486,0.36719 0.0966,-0.41628 0.22942,-1.06868 0.29204,-1.49301 z m 1.64832,1.14808 0.0623,0.15585 c 0.0821,0.20548 0.0849,0.58838 0.006,0.77803 -0.0434,0.10386 -0.12425,0.18246 -0.25604,0.24882 l -0.19255,0.0969 0.18464,-0.17236 c 0.16149,-0.15073 0.18861,-0.20444 0.21655,-0.42807 0.0176,-0.14063 0.0202,-0.35097 0.006,-0.46745 z m -1.44195,0.0712 c 0.0447,0.002 0.0473,0.0444 0.0292,0.13472 -0.021,0.10484 -0.009,0.14976 0.0481,0.18177 0.11149,0.0624 0.0224,0.1474 -0.26865,0.25629 -0.15111,0.0565 -0.25125,0.0857 -0.31544,0.0864 0.0486,-0.13472 0.17766,-0.45876 0.31905,-0.52586 0.0956,-0.0453 0.153,-0.13465 0.18773,-0.13337 z m 1.20748,0.60862 c 0.004,1.6e-4 0.008,0.006 0.008,0.0148 0.004,0.16447 -0.10693,0.35862 -0.27804,0.4845 -0.16944,0.12462 -0.20905,0.13412 -0.54139,0.13002 -0.47464,-0.006 -0.70264,-0.0739 -0.26951,-0.0805 0.5456,-0.008 0.84031,-0.13833 1.00066,-0.44188 0.0356,-0.0674 0.0669,-0.1077 0.0807,-0.10693 z m -1.73311,0.045 c 0.006,6e-5 0.0109,0.002 0.013,0.006 -0.0109,-1.7e-4 -0.0208,-7e-4 -0.0297,-0.004 0.006,-7e-4 0.0117,-0.002 0.0166,-0.002 z"
       sodipodi:nodetypes="sscccccssssssscsssssssccccssscsscccsscccsccsscscsscccccscsccscccs" /></g></svg>
