<?xml version="1.0" encoding="UTF-8" standalone="no"?>
<!-- Created with Inkscape (http://www.inkscape.org/) -->

<svg
   width="50.000244mm"
   height="40.620541mm"
   version="1.1"
   viewBox="0 0 50.000245 40.620541"
   xml:space="preserve"
   id="svg10"
   sodipodi:docname="puffinLogo.svg"
   inkscape:version="1.2.2 (732a01da63, 2022-12-09)"
   xmlns:inkscape="http://www.inkscape.org/namespaces/inkscape"
   xmlns:sodipodi="http://sodipodi.sourceforge.net/DTD/sodipodi-0.dtd"
   xmlns="http://www.w3.org/2000/svg"
   xmlns:svg="http://www.w3.org/2000/svg"><defs
     id="defs14" /><sodipodi:namedview
     id="namedview12"
     pagecolor="#ffffff"
     bordercolor="#000000"
     borderopacity="0.25"
     inkscape:showpageshadow="2"
     inkscape:pageopacity="0.0"
     inkscape:pagecheckerboard="0"
     inkscape:deskcolor="#d1d1d1"
     inkscape:document-units="mm"
     showgrid="false"
     inkscape:lockguides="true"
     inkscape:zoom="4.2545"
     inkscape:cx="95.075802"
     inkscape:cy="76.977318"
     inkscape:window-width="1920"
     inkscape:window-height="991"
     inkscape:window-x="-9"
     inkscape:window-y="-9"
     inkscape:window-maximized="1"
     inkscape:current-layer="svg10" /><g
     transform="translate(-154.23643,-184.78932)"
     id="g8"><rect
       x="154.49001"
       y="180.10001"
       width="50"
       height="50"
       fill-opacity="0"
       id="rect2" /><g
       transform="matrix(0.99002,0,0,1,87.319,27.508)"
       id="g6"><path
         d="m 85.761,197.74 c -6.1779,-1.0009 -10.158,-3.2099 -13.626,-7.5621 -12.053,-15.129 1.6048,-36.463 20.735,-32.389 8.0568,1.7158 18.698,9.8059 24.494,18.622 l 0.73228,1.1139 -0.61391,0.99333 c -2.1712,3.5132 -8.5276,9.9391 -13.29,13.436 -5.7602,4.229 -13.345,6.6099 -18.431,5.7858 z m 6.52,-3.8368 c 0.86395,-0.42085 2.5589,-3.6902 3.766,-7.2642 2.9627,-8.7716 0.25128,-18.892 -6.7012,-25.012 l -1.2355,-1.0875 -1.8501,0.17195 c -17.473,1.624 -20.72,26.666 -4.2373,32.676 3.0882,1.126 8.4514,1.3955 10.258,0.51549 z m -9.9517,-10.83 c -3.2196,-1.2849 -4.6152,-5.2381 -2.9845,-8.454 2.4973,-4.9248 9.8957,-4.0081 11.19,1.3865 1.1184,4.6619 -3.7424,8.8486 -8.2053,7.0674 z m 4.2916,-3.934 c 0.95379,-1.058 0.97233,-2.3194 0.0502,-3.4153 -1.6602,-1.973 -4.6025,-0.89232 -4.6025,1.6905 0,2.561 2.8314,3.6338 4.5523,1.7248 z m 12.951,11.66 c 8.1683,-5.1802 6.8143,-23.283 -2.0725,-27.709 -2.7102,-1.3497 -3.0158,-1.1556 -1.5149,0.96236 5.1569,7.2771 6.1316,16.206 2.7658,25.334 -0.90185,2.4458 -0.87638,2.4896 0.82164,1.4128 z m 11.211,-9.5401 c 3.4213,-3.9216 3.2521,-3.4953 2.029,-5.1134 -1.4622,-1.9345 -4.7386,-5.378 -4.9355,-5.1873 -0.0902,0.0874 0.039,0.92087 0.28716,1.8521 0.76344,2.8645 0.58571,8.2602 -0.35264,10.705 -0.42722,1.1133 0.93255,0.0807 2.9719,-2.2569 z"
         fill="#d2cbc6"
         stroke-width="0.26458"
         id="path4"
         style="fill:#1a1a1a" /></g></g></svg>
