<?xml version="1.0" encoding="UTF-8" standalone="no"?>
<!-- Created with Inkscape (http://www.inkscape.org/) -->

<svg
   width="161.92479mm"
   height="201.43629mm"
   version="1.1"
   viewBox="0 0 161.92479 201.4363"
   xml:space="preserve"
   id="svg9824"
   sodipodi:docname="puffinDrawing.svg"
   inkscape:version="1.2.2 (732a01da63, 2022-12-09)"
   xmlns:inkscape="http://www.inkscape.org/namespaces/inkscape"
   xmlns:sodipodi="http://sodipodi.sourceforge.net/DTD/sodipodi-0.dtd"
   xmlns="http://www.w3.org/2000/svg"
   xmlns:svg="http://www.w3.org/2000/svg"><defs
     id="defs9828"><linearGradient
       id="linearGradient941"
       x1="104.61"
       x2="104.61"
       y1="171.71509"
       y2="167.71555"
       gradientTransform="matrix(1,0,0,1.8352689,-47.953998,-241.7561)"
       gradientUnits="userSpaceOnUse"><stop
         stop-color="#191919"
         offset="0"
         id="stop2"
         style="stop-color:#191919;stop-opacity:1;" /><stop
         stop-color="#191919"
         offset="0.33253226"
         id="stop7940"
         style="stop-color:#191919;stop-opacity:0.898" /><stop
         stop-color="#191919"
         offset="0.7933135"
         id="stop8685"
         style="stop-color:#191919;stop-opacity:0.25098039;" /><stop
         stop-color="#191919"
         stop-opacity="0"
         offset="1"
         id="stop4" /></linearGradient></defs><sodipodi:namedview
     id="namedview9826"
     pagecolor="#ffffff"
     bordercolor="#000000"
     borderopacity="0.25"
     inkscape:showpageshadow="2"
     inkscape:pageopacity="0.0"
     inkscape:pagecheckerboard="0"
     inkscape:deskcolor="#d1d1d1"
     inkscape:document-units="mm"
     showgrid="false"
     inkscape:zoom="0.55170928"
     inkscape:cx="238.35017"
     inkscape:cy="377.91643"
     inkscape:window-width="2400"
     inkscape:window-height="1261"
     inkscape:window-x="-9"
     inkscape:window-y="-9"
     inkscape:window-maximized="1"
     inkscape:current-layer="svg9824" /><path
     style="fill:#584937;stroke:none;stroke-width:0.352778;fill-opacity:1"
     d="m 80.315339,9.5251816 c -2.36961,0.109819 -4.06294,3.1634644 -5.441239,4.8790224 -4.67184,5.815754 -5.99723,12.503821 -8.08602,19.462645 -1.36949,4.562475 -0.86149,9.87425 -2.98627,14.111111 -1.8034,3.595868 -5.0045,6.715828 -7.47042,9.877778 -4.09399,5.24898 -7.94773,10.76078 -11.18482,16.580548 -5.4162,9.73632 -7.94385,20.14503 -12.10345,30.338894 H 32.69034 L 33.74867,90.664066 H 33.3959 l -0.35278,3.52778 H 32.69034 L 36.92367,63.147398 H 36.5709 c -1.59844,8.237368 -3.5359,16.270468 -4.15573,24.680688 -0.44132,5.98593 0.45509,12.07453 -0.13793,18.005434 -0.6477,6.47805 -2.94746,13.9319 -5.0038,20.10833 -3.16195,9.49643 -6.04026,18.9551 -11.32629,27.51667 -3.16335,5.12339 -8.99188,9.38777 -10.4207,15.16944 2.77809,1.17193 4.98687,0.0201 7.76111,-0.5468 3.39267,-0.69356 6.7811,-0.86431 10.23056,-0.86431 v 0.35278 h -1.05834 v 0.35278 l 3.52778,0.35277 -0.35278,1.05834 4.23334,1.05833 v 0.35278 l -2.82222,1.05833 v 0.35278 l 5.29166,0.35278 v 0.35278 l -2.82222,0.70555 c 0.98037,2.43875 6.17714,1.36701 8.46667,1.66441 5.17313,0.67204 10.93681,1.5441 15.875,3.18558 2.91817,0.97014 5.4931,2.76648 8.46666,3.61668 l -0.70555,-1.41111 5.99722,-0.35278 3.98533,3.88091 3.92924,8.11353 7.960429,8.81945 c 0.87524,-1.39312 0.58879,-3.92324 1.87607,-4.90749 1.40088,-1.07139 3.5239,-0.9839 5.17949,-1.14935 4.78931,-0.47872 9.39941,-1.55681 13.758331,0.41239 1.29963,-4.43935 -6.231471,-9.09637 -8.113891,-13.05277 l 0.35278,-0.35278 2.11667,0.70555 c -0.64065,-3.50484 -2.9584,-2.37737 -5.64445,-2.66453 -2.93229,-0.31397 -6.46324,-1.00224 -9.17222,-2.12478 -1.10702,-0.45896 -4.44641,-1.23225 -4.34587,-2.83563 0.14922,-2.39324 5.17419,-2.22285 6.81531,-2.53612 6.28827,-1.2005 11.95106,3.79589 18.344451,3.03989 2.50154,-0.29563 6.58001,0.87101 5.64444,-2.40383 3.24732,-0.60289 6.13869,-1.39911 9.17222,0 1.01883,-4.0901 -4.63938,-4.60128 -7.05555,-6.70277 l 1.76389,-2.11667 -0.70556,-1.05833 c -1.77271,0.0762 -3.18946,0.23177 -4.23333,1.76388 h 3.88055 v 0.35278 l -2.46944,0.70556 v 0.35278 l 1.41111,1.76388 -8.46667,-0.35277 v 0.35277 l 1.41112,1.05834 h 0.35277 l 0.35278,-0.70556 h 0.35278 l 1.76389,1.05834 h 0.35278 l 0.70555,-0.70556 0.35278,1.41111 h 0.35278 v -1.05833 l 1.41111,1.05833 h 0.35278 v -1.05833 l 0.70555,0.70555 c 1.55363,-0.61595 2.58445,-0.29069 3.88056,0.70556 -5.40597,0.79481 -10.84757,0.83785 -16.227781,-0.65652 -1.34444,-0.37359 -4.4443,-3.06211 -4.93889,-0.75459 l 1.41111,-0.35278 -0.35278,1.05833 c 1.74378,0.10548 3.74227,0.49178 4.586111,2.11667 h 0.35278 l 0.70556,-0.70556 v 1.05834 h 0.35278 l 1.05833,-1.05834 0.35278,1.41112 h 0.35277 v -1.41112 l 2.11667,0.35278 c 0.48401,3.7846 -3.38455,2.08845 -5.64444,2.46945 l -0.705561,-1.41111 -0.35278,1.05833 -9.87777,-4.23333 -1.05834,0.70555 c -0.0998,-9.32004 12.156721,1.12183 15.169451,-2.82222 l -8.466671,-1.41111 v -0.35278 c 3.35351,-0.62265 7.277451,-0.0815 10.583331,0.70556 l 2.82223,-1.41112 -1.76389,-0.35277 v -0.35278 l 1.76389,-0.35278 v -0.35278 c -1.4284,0.23178 -7.11306,2.12831 -7.87471,-0.0113 -0.335491,-0.94368 1.1049,-2.43663 1.55716,-3.16371 1.89865,-3.05364 3.8728,-6.05014 5.66491,-9.17222 2.97532,-5.18372 4.53848,-10.57945 7.09365,-15.875 2.72486,-5.64621 6.83084,-11.89461 6.96454,-18.34444 h -0.35278 c -1.89477,7.97771 -7.75476,17.50342 -14.46389,22.225 v 0.35277 c 3.79554,-0.76588 5.19395,-5.25921 8.11389,-7.40833 l -6.35,9.525 4.58611,-5.99722 h 0.35278 l -3.175,8.81944 -2.94993,3.88056 -6.92785,9.87778 v 0.35277 l 0.70556,0.70556 -2.116671,0.35278 c -0.56832,2.10396 -3.0099,4.35821 -4.93889,5.29166 l 1.41112,-2.82222 h -0.35278 c -0.92146,1.20827 -2.24085,3.35245 -3.88056,2.46945 h -0.35278 l -1.41111,1.76389 -3.175,1.76388 1.05834,-1.41111 -9.17223,4.93889 v -0.35278 c 2.95981,-1.07562 6.36835,-2.66558 7.76112,-5.64444 l -7.05556,4.58611 v -0.35278 c 3.45899,-1.79458 7.97736,-5.26838 10.23056,-8.46666 -2.41018,1.67781 -5.19325,3.44134 -7.40834,5.34211 -2.11631,1.81575 -4.13491,4.56424 -7.055549,4.88844 v -0.35278 l 5.291659,-4.58611 -7.761109,4.58611 c 1.64606,2.70087 5.589059,2.552 5.644449,6.70278 h 0.70555 l -0.35278,1.41111 1.05834,-0.35277 v 1.05833 l 1.05833,-0.35278 0.35278,0.35278 -0.35278,1.05833 1.41111,0.70556 1.05834,-0.35278 v 1.05833 l 1.05833,-0.35277 v 1.41111 l 1.41111,-0.35278 -0.70556,2.11667 2.11667,-1.05834 -0.70555,1.76389 1.76388,-1.41111 -0.70555,2.46944 1.76389,-1.41111 -0.70556,2.11667 1.76389,-1.41111 -0.70555,1.76389 1.76388,-1.05834 -0.35277,1.76389 1.76389,-1.05833 0.35277,1.05833 0.70556,-1.41111 c -2.97427,-1.41323 -9.32921,-4.97946 -10.93611,-7.76111 l -2.82223,-1.76389 15.52223,2.82222 -0.35278,1.76389 -1.41111,-0.35277 5.64444,6.35 -5.29166,-1.05834 v 1.41111 l 1.05833,-1.05833 h 0.35278 l 0.35278,1.76389 c 1.31621,-0.45826 1.97626,0.0265 2.82222,1.05833 l 1.05833,-0.70555 v 2.82222 l -1.41111,0.35278 h -0.35278 l -0.35278,-0.70556 h -0.35277 c -2.58763,1.06504 -9.2636,2.99685 -11.94753,1.90253 -2.72274,-1.11054 -1.85526,-4.01285 -5.69136,-3.31364 v 0.35278 l 1.76389,1.76389 h 1.41111 l -0.35278,1.05833 1.41111,0.35278 v 0.35278 c -3.33622,0.46355 -4.84752,-0.20708 -5.64444,-3.88056 l -1.05834,0.35278 -2.638069,-4.58611 -0.88971,-6.35 -1.41111,0.70555 0.35278,-1.05833 -0.70555,-1.05833 -1.05834,0.35277 v -0.70555 l -1.05833,0.35278 1.76389,-2.82223 1.05833,0.70556 0.35278,-1.41111 -2.11667,-0.35278 0.35278,-1.41111 -1.41111,1.41111 h -0.35278 l 1.41111,-2.82222 -2.11666,2.46944 h -0.35278 l 1.41111,-3.52778 -6.70278,2.82223 c -0.9659,-1.4471 -2.74708,-0.641 -4.23333,-0.35278 v -0.35278 l 1.05833,-0.35278 v -0.35277 l -4.23333,1.76388 c -3.63538,-1.07456 -8.2617,0.80928 -11.28889,-2.11666 h -5.29167 v -0.35278 l 1.05834,-0.70556 h -2.46945 v -0.35277 l 1.76389,-0.35278 v -0.35278 h -3.88056 v -0.35278 l 4.93889,-1.41111 v -0.35278 l -9.525,0.70556 v -0.35278 l 4.23334,-0.35278 v -0.70555 L 27.0459,164.7474 v -0.35278 l 5.29166,-0.35278 v -0.35278 c -2.25178,-0.0967 -4.37621,-0.45155 -5.99722,-2.11666 l 2.11667,-0.35278 v -0.35278 l -3.88056,-0.35278 v -0.35277 l 8.81945,0.35277 v -0.35277 l -3.175,-1.05834 v -0.35278 l 5.99722,-0.35277 v -0.35278 l -3.52778,-0.70556 v -0.35278 h 4.93889 v -0.70555 l -3.175,-1.05833 2.46944,0.70555 -1.05833,-1.41111 2.46944,-0.70556 -1.05833,-1.05833 h 2.46945 v -0.35278 l -0.70556,-0.70555 4.93889,-0.70556 v -0.35278 l -2.11667,-0.70555 4.58611,-0.70556 v -0.35277 l -2.46944,-0.35278 9.525,-7.05556 -1.05833,0.35278 2.82222,-3.52778 c 3.34468,0.31362 7.02663,-7.41927 8.11389,-10.23055 l -1.41111,0.70555 4.58611,-4.58611 -1.41111,0.35278 0.70555,-3.175 2.82222,-2.46945 -3.52777,1.76389 9.87777,-8.81944 -5.29166,1.76389 v -0.35278 l 5.997219,-3.175 v -0.35278 l -8.466669,2.11667 v -0.35278 l 6.35,-2.46944 v -0.35278 l 1.76389,-0.70556 v -0.35277 l -2.82222,1.05833 v -0.35278 l 1.05833,-0.35278 -0.70555,-0.70555 3.880549,-2.11667 v -0.35278 l -1.763889,0.35278 3.174999,-2.82222 -2.11666,-0.35278 v -0.35278 l 4.23333,-1.763894 v -0.35277 h -1.05833 l -0.35278,-0.70556 v -0.35278 l 4.58611,-0.70555 -0.70555,-0.70556 5.64444,-3.88055 -2.46944,1.05833 2.46944,-3.175 -2.11667,0.70556 0.70556,-1.41112 -3.175,1.41112 1.05833,-2.11667 -2.82222,0.70555 v -0.35277 l 1.76389,-1.41111 -2.82222,0.70555 0.70555,-1.41111 -3.52778,1.76389 2.82223,-3.175 -4.93889,2.46944 2.82222,-2.82222 -3.880559,0.70556 v -0.35278 l 2.822229,-1.76389 v -0.35278 l -3.527779,0.70556 v -0.35278 l 2.822219,-2.11667 H 74.6709 v -0.70555 l 2.116659,-0.70556 v -0.35278 l -3.527779,-0.35277 v -0.35278 l 3.527779,-0.35278 v -0.35278 H 75.02367 v -0.35278 l 2.822229,-0.70555 -1.41112,-0.70556 v -1.41111 l 2.82223,-1.05833 -2.46945,-1.41111 h 1.76389 v -0.35278 l -1.05833,-1.05833 h 3.175 v -0.35278 l -3.88056,-0.35278 v -0.35278 l 3.52778,-0.35277 v -0.352778 h -1.41111 v -0.35278 h 2.46944 v -0.70556 h -1.41111 v -0.35277 l 3.52778,-0.35278 v -0.35278 h -1.05833 v -0.35278 l 3.88055,-0.70555 4.58611,-5.29167 -2.82222,5.64445 1.41111,-1.76389 h 0.35278 l 0.35278,1.05833 1.76389,-8.46667 h 0.35278 l -1.05834,9.17223 h 0.35278 l 2.11667,-11.99445 h 0.35277 l -1.05833,12.34722 1.05833,-1.76389 h 0.35278 l 1.05834,1.76389 v 1.41111 h 0.35277 l 0.70556,-4.23333 h 0.35278 l 1.05833,3.175 h 0.70556 l -1.05834,-15.875 h 0.35278 l 1.41111,13.40556 h 0.35278 v -9.87778 h 0.352781 v 12.34722 h 0.70555 v -6.35 h 0.35278 l 1.41111,5.64445 v -2.82223 l 1.76389,1.41111 -3.03742,-8.11388 0.56798,-8.819447 h -0.35278 l -0.70556,2.469447 h -0.35278 -1.763881 v -1.763891 l -1.41112,0.705555 0.35278,-1.058333 h -0.35278 l -0.35277,1.411109 -2.11667,-0.705554 -2.11667,0.352778 -1.05833,2.469446 h -0.35278 l 2.82222,-9.172224 -4.23333,5.997223 0.35278,-3.175 h -0.35278 l -2.46944,2.116666 0.35277,-1.058333 h -1.41111 l 0.70556,-1.411111 -3.175,-0.352778 0.35278,-1.411111 -1.05834,-1.411111 -1.05833,0.352778 v -2.469445 l -2.82222,0.352778 1.05833,-1.058334 v -2.469444 l -2.46944,0.352778 0.35277,-1.058334 v -2.469444 l -2.11666,1.058333 1.05833,-1.411111 v -0.352778 c -1.06186,-1.868664 -1.641119,-5.662295 -1.05833,-7.761111 -2.416879,-1.750377 3.90172,-4.445917 4.58611,-5.997222 l -3.88056,1.763889 7.40834,-5.997223 v -0.352777 l -1.76389,0.352777 2.11666,-3.175 -1.41111,0.352778 2.82223,-2.822222 -0.35278,0.705555 h 0.35278 l 1.41111,-1.4111114 -1.41111,0.7055564 c 2.68005,-2.1059424 5.16396,-2.5618724 8.46666,-2.8222224 v 0.705555 c -1.0922,0.01834 -6.29003,1.9900904 -3.88055,2.4694454 l -1.41111,1.058333 v 0.352778 c 1.97061,-0.201613 4.01813,-0.924207 5.29166,-2.4694454 h -3.175 v -0.352777 l 10.583341,-2.395397 7.76111,2.642835 5.29166,0.105339 v 0.3527784 h -0.70555 v 0.352778 l 7.40833,1.058333 -0.70555,-5.9972224 c 2.18792,0.649605 2.08773,2.845541 3.1817,4.5861114 3.75108,5.970023 3.36832,11.070414 4.93218,17.638889 -1.28023,0.453002 -3.01836,0.873901 -2.46944,-1.058333 h -1.41111 l 1.05833,-1.763889 -1.76389,0.705556 v 1.763889 l 1.05834,0.352777 c -1.31093,0.657966 -3.01872,0.754274 -4.19524,1.618792 -3.80047,2.792694 1.25131,6.252739 1.72579,0.497875 5.4924,0 7.29862,0.05521 5.29167,5.997222 l -0.70556,-0.352777 -1.41111,3.527777 -0.70555,-0.705555 c -1.59809,3.278011 3.48368,5.573536 3.52777,0.705555 l -0.70555,0.352778 1.76389,-10.230556 16.22778,1.058334 -3.175,4.938889 0.70555,-2.116667 h -0.35278 c -2.01365,2.835981 -3.76519,6.226528 -7.05555,7.761111 l 1.05833,-1.763889 -2.82222,2.469445 3.52778,-7.408334 h -0.35278 c -1.80834,3.165123 -2.78483,6.766631 -5.99722,8.819445 l 1.76389,-3.175 -3.175,3.527778 2.11666,-4.586111 h -0.35278 l -2.96827,4.617155 -8.32061,0.674511 -1.05834,1.763889 h -0.35278 l 1.41112,-2.822222 -2.11667,1.058333 3.88055,-4.938889 c -4.32717,2.263423 -6.7003,7.590367 -4.23333,11.994443 l -1.05833,-0.352776 0.70555,2.822226 h -0.35277 v -0.70556 h -0.35278 l 0.35278,1.76389 h -1.05834 l 1.05834,3.175 -2.11667,-4.23333 h -0.35278 c 0.0293,3.55317 1.36278,6.05049 2.82222,9.17222 -3.35632,-2.68182 -3.0099,-7.22489 -4.58611,-10.93611 h -0.35278 l 0.35278,3.175 h -0.35278 l -0.35277,-1.05834 v 3.175 h -0.35278 l -0.70556,-3.52777 -1.76389,-1.76389 4.58612,12.7 c -2.42606,-2.70475 -3.83294,-7.12435 -4.93889,-10.58334 h -0.35278 l 2.46944,8.81945 c -3.4925,-4.35963 -4.52508,-11.22821 -3.52777,-16.580557 h -0.35278 l -0.35278,7.408337 -1.41111,-3.175004 h -0.35278 v 3.175004 c -2.10749,-1.81293 -1.60514,-3.860451 -1.41111,-6.350004 h -0.35278 c -0.81491,3.423356 -1.32962,10.938934 2.11667,13.052774 l -1.41111,-5.99722 h 0.35278 l 3.175,9.525 c -4.56918,-3.76978 -4.94948,-8.26382 -5.64445,-13.758331 h -0.35278 v 9.877771 h 0.35278 l 0.35278,-1.41111 h 0.35278 c 0.30868,3.53942 1.48343,7.13388 3.175,10.23056 h 0.35277 l -1.76388,-5.29167 3.175,4.23334 -0.70556,-2.82223 h 0.35278 l 1.41111,2.46945 h 0.35278 l -0.35278,-2.11667 2.11667,2.82222 h 0.35277 l -0.70555,-2.82222 1.41111,2.46945 h 0.35278 l -0.35278,-2.11667 2.11667,2.46944 h 0.35277 l -1.76389,-3.88055 c 2.89666,3.0286 3.88021,5.73652 3.88056,9.877778 h 0.35278 l -0.38947,-5.997228 -3.13831,-8.81944 h 0.35278 l 1.05833,2.82222 c 1.65735,2.97674 4.50074,6.34153 4.78614,9.877778 0.26987,3.34292 -1.16276,6.50275 -0.90558,9.87778 h 0.35277 l 1.0213,-10.23056 -2.43241,-7.408328 h 0.35278 l 2.36502,6.702778 -0.24835,12.7 h 0.35278 c 0.23847,-6.35953 1.07985,-11.65331 -0.70556,-17.991668 1.7085,1.64571 2.11208,5.111748 2.11667,7.408328 0.002,0.96379 -0.36442,2.64407 0.70555,2.82222 l -3.175,14.46389 h 0.35278 l 1.76389,-5.99722 h 0.35278 v 1.05833 h 0.35277 l -0.35277,-1.76388 h 0.70555 c -0.65934,-3.03178 0.49072,-6.3941 0.33867,-9.525 -0.2533,-5.208058 -1.90535,-10.741728 -3.86645,-15.522228 h 0.35278 l 1.41111,1.76389 -0.70555,-1.76389 2.11666,3.175 0.70556,-0.70555 1.05833,2.11666 h 0.35278 l 0.70556,-1.05833 -0.35278,-1.41111 2.46944,3.88056 c 1.76319,0.52352 2.425,2.57633 2.82223,4.23333 h -0.35278 l -0.70556,-1.41111 h -0.35278 l 1.41112,5.644438 h -0.35278 l -1.05834,-3.880548 h -0.35277 v 13.052768 h 0.35277 l 0.70556,-8.81944 h 0.35278 c 0.31961,12.48763 -4.76674,25.25995 -9.525,36.688894 1.87748,-1.26965 3.48791,-4.85352 3.88055,-7.05556 h 0.35278 c -0.54257,6.21524 -6.16373,10.5216 -7.40833,16.22778 h 0.35278 l 4.93888,-8.81944 h 0.35278 l -1.41111,6.35 h 0.35278 c 0.34784,-3.98216 2.04787,-7.82708 3.12032,-11.64167 1.46861,-5.223584 1.91347,-10.630254 3.1937,-15.875004 1.69192,-6.93067 4.20264,-13.49904 3.50378,-20.813888 -0.52175,-5.46206 -3.15277,-10.88178 -6.52603,-15.16944 -1.32927,-1.68945 -5.06942,-4.133146 -4.0827,-6.665738 1.06857,-2.7432 7.42597,-1.165577 9.96315,-1.984022 9.47138,-3.056114 20.21946,-12.533136 30.69167,-9.341908 1.14758,-5.902184 -6.37505,-12.466003 -10.23056,-15.93462 -5.59188,-5.030717 -11.51114,-5.488552 -17.99166,-8.373286 C 122.66596,6.1096476 113.94882,0.0605666 101.48201,4.5359601e-4 95.173279,-0.0299564 88.737559,1.4650106 83.843119,5.5975196 c -1.42558,1.203748 -2.99438,2.067031 -3.52778,3.927652 M 100.0709,1.0585046 v 0.352778 l -6.702781,0.705555 c 1.91276,-1.522942 4.40443,-1.484771 6.702781,-1.058333 m 12.34722,2.469444 v 0.352778 l -11.64167,-2.469444 c 3.03565,-1.271094 8.82121,0.782178 11.64167,2.116666 m -3.52778,-2.469444 v 0.352778 h -2.46944 l 2.46944,-0.352778 m 4.23333,1.058333 v 0.352778 l -3.88055,-0.705556 3.88055,0.352778 m -1.05833,2.469445 v 0.352777 l -11.28889,-2.051614 -7.761111,0.287725 c 4.84258,-3.450343 13.913911,0.236467 19.050001,1.411112 m -4.93889,0 v 0.352777 l -6.70278,-1.058333 v 0.352778 l 4.23334,1.411111 v 0.352778 L 93.368119,4.2335046 c 4.09328,-2.468034 9.426931,0.01041 13.758331,0.352778 m 7.76111,-1.058334 1.76389,0.705556 v 0.352778 l -2.11666,-0.705556 0.35277,-0.352778 m -22.930551,0.352778 v 0.352778 l -3.175,1.058333 3.175,-1.411111 m 22.577781,0.705556 3.175,2.116666 c -0.93063,-0.226801 -3.60292,-1.032616 -3.175,-2.116666 m -14.11112,1.058333 v 0.352778 l -6.350001,-0.352778 v 0.352778 l 3.88056,0.705555 v 0.352778 l -9.17222,0.705556 c 3.42159,-2.825221 7.45772,-3.442935 11.641661,-2.116667 m 7.40834,-0.705556 7.40833,3.175 v 0.352778 l -7.76111,-3.175 0.35278,-0.352778 m -15.522221,0.705556 0.35277,1.058333 1.41111,-0.352778 v -0.352777 l -1.76388,-0.352778 m 19.402771,2.469444 v 0.352778 l -6.70277,-2.469444 c 2.0521,-0.792621 4.93641,1.089624 6.70277,2.116666 m 1.41111,-2.469444 2.82223,1.763889 -2.82223,-1.763889 m -23.283331,0.470359 0.11748,0.117616 c -0.17392,0.05803 -0.39018,-0.117616 -0.11748,-0.117616 m 28.927781,0.940752 -0.35278,0.352778 0.35278,-0.352778 m 26.10555,22.2250004 c -2.09867,-2.11e-4 -6.67455,-0.183303 -8.11388,-1.763888 l -1.05834,0.352777 -0.35278,-1.058333 h -0.35277 v 1.058333 l -1.76389,-1.058333 h -1.41111 l -0.35278,1.058333 -1.05833,-0.705555 -0.35278,1.058333 h -0.35278 l -1.76389,-13.405556 1.05833,0.705556 -4.93888,-8.4666674 c 2.26342,0.537845 4.33387,2.3114 6.35,3.4779664 6.76804,3.916221 14.39192,10.147617 14.46388,18.747034 m -36.68888,-21.1666674 -0.35278,0.352778 0.35278,-0.352778 m -21.519451,0.352778 -2.46944,2.1166674 2.46944,-2.1166674 m 22.577781,0 -0.35278,0.352778 0.35278,-0.352778 m 15.875,0 0.70555,0.705556 -0.70555,-0.705556 m -41.275001,0.352778 -1.05833,1.058333 1.05833,-1.058333 m 26.105551,0 1.76389,0.352778 v 0.352778 l -2.11666,-0.352778 0.35277,-0.352778 m 6.70278,0 1.41111,0.352778 v 0.352778 l -1.76389,-0.352778 0.35278,-0.352778 m 9.76031,0.470359 0.23495,0.117616 -0.23495,-0.117616 m 0.82303,0.235197 v 0.352777 l 2.11666,0.7055564 v -0.352778 l -2.11666,-0.7055554 m -1.05834,1.0583334 1.76389,2.469444 v -1.058333 l -1.76389,-1.411111 m 4.23334,1.058333 0.35277,0.352778 -0.35277,-0.352778 m -51.858341,0.352778 -2.11667,2.469445 2.11667,-2.469445 m 10.93611,1.058333 v 0.352778 l 2.82223,-1.411111 -2.82223,1.058333 m 9.87778,3.880556 v 0.352778 l 0.705561,0.705555 -2.469451,2.822223 c 2.878671,0.850935 6.579661,0.899583 9.525001,0.352777 l -0.70555,-2.469444 v -0.352778 l 2.82222,-2.116667 -1.05833,0.705556 c 0.23636,-2.82 -2.24473,-3.519523 -4.58612,-3.527778 v -0.352778 l 3.88056,0.352778 c -2.82857,-4.2638134 -6.60435,1.256348 -8.113891,3.527778 m 31.750001,-4.938889 0.35278,0.352778 -0.35278,-0.352778 m -10.93611,0.352778 1.76389,0.705555 -1.76389,-0.705555 m 8.11389,0 1.05833,1.058333 -1.05833,-1.058333 m -31.750001,0.705555 -0.35278,0.705556 0.35278,-0.705556 m 33.513891,0 1.05833,2.116667 0.70556,-0.705555 2.82222,5.291666 h 0.35278 l -1.05834,-3.880555 2.46945,3.880555 0.70555,-0.705555 1.76389,5.291666 -8.81944,-1.411111 v 1.411111 l 4.93889,1.763889 h 0.35277 l 0.35278,-0.705555 h 0.35278 l 1.76389,1.058333 h 0.35278 l 1.05833,-1.058333 v 1.411111 h 0.35278 l -0.35278,-3.880556 h 0.35278 l 1.05833,4.938889 h 0.35278 C 140.97482,21.2508 136.04365,15.558518 130.05701,13.052949 m -41.275001,1.058334 c 1.23931,0.862118 2.97039,0.495582 3.88055,-0.705556 l -3.88055,0.705556 m 14.816661,-0.705556 c -1.40052,2.789767 -0.71578,4.135649 2.11667,5.291667 -3.54295,1.36839 -5.51145,-3.526543 -2.11667,-5.291667 m 12.34723,0 0.35277,0.352778 -0.35277,-0.352778 m -22.225001,0.352778 -0.70556,1.058333 0.70556,-1.058333 m 21.519441,0 0.35278,0.352778 -0.35278,-0.352778 m 5.99722,0 v 0.352778 h 1.41111 l -1.41111,-0.352778 m 6.58531,0.235197 -0.11783,0.235162 0.11783,-0.235162 m 1.52858,-0.235197 1.05834,2.469444 h 0.35277 l -1.41111,-2.469444 m -33.866661,0.352778 -0.35278,0.705555 h 0.70555 l -0.35277,-0.705555 m 19.050001,0 0.35277,0.352778 -0.35277,-0.352778 m 26.10555,0 c 2.77354,1.994958 5.34882,5.329202 6.70278,8.466667 2.61902,0.490255 4.12362,5.013501 4.23333,7.408333 h -0.35277 L 150.8709,28.92795 h -4.93889 c 0.073,-3.762658 -1.9805,-6.900722 -3.52778,-10.230556 l -2.46944,-2.116667 -0.35278,-1.763889 2.82222,2.116667 -1.76389,-2.822222 m -53.975001,0.352778 0.35278,0.352777 -0.35278,-0.352777 m 19.755561,0 -1.05834,1.058333 1.05834,-1.058333 m 15.52222,1.058333 1.05833,-0.705556 -1.05833,0.705556 m -30.691671,-0.352778 -2.11666,1.411111 h 1.41111 l -4.93889,3.527778 v 0.352778 l 7.40833,-4.938889 v -0.352778 l -2.11667,1.058333 0.35278,-1.058333 m -1.05833,3.880556 1.41111,-0.352778 -0.70556,1.058333 c 2.45287,-0.327836 4.68454,-2.195442 5.99723,-4.233333 l -5.29167,3.175 3.52778,-3.527778 -4.93889,3.880556 m 52.916671,-3.880556 -0.35278,0.352778 0.35278,-0.352778 m -11.64167,0.352778 0.35278,0.352778 -0.35278,-0.352778 m -9.17222,0.705555 v 0.352778 h 1.76389 l -1.76389,-0.352778 m -31.397231,0 -0.35277,0.352778 0.35277,-0.352778 m 38.100001,0 0.35278,1.763889 h 0.35278 l -0.70556,-1.763889 m -55.03333,0.352778 v 0.705556 h -0.70556 l 0.70556,-0.705556 m 12.347219,0 -4.23333,2.469445 4.58611,-2.116667 -0.35278,-0.352778 m 44.450001,0 0.70556,2.469445 h 0.35278 l -1.05834,-2.469445 m 9.87778,0 1.41111,1.763889 -1.41111,-1.763889 m 4.58611,0 c 4.36916,2.266527 6.65727,7.172114 8.11389,11.641667 h -0.35278 l -5.03978,-7.761111 -2.72133,-3.880556 m -69.85,0.352778 -1.41111,1.058333 1.41111,-1.058333 m 13.052779,0 0.35278,0.352778 -0.35278,-0.352778 m 17.991671,0 -1.76389,0.705556 v -0.352778 l 1.76389,-0.352778 m 3.175,0 0.35277,0.352778 -0.35277,-0.352778 m 5.99722,0 0.35278,0.352778 -0.35278,-0.352778 m 7.05555,0.352778 v 0.352778 h 1.76389 v -0.705556 l -1.76389,0.352778 m 3.88056,-0.352778 0.35278,0.352778 -0.35278,-0.352778 m 5.76192,0.235197 0.11783,0.235162 -0.11783,-0.235162 m 10.11308,-0.235197 0.35278,1.058333 h 0.35278 l -0.70556,-1.058333 m -56.797221,2.469444 2.11666,-1.411111 -2.11666,1.411111 m 10.93611,-1.763888 -3.175,1.763888 v 0.352778 c 1.35361,-0.295239 2.80352,-0.653838 3.175,-2.116666 m 1.76389,0 -2.82222,2.116666 v 0.352778 l 2.82222,-2.469444 m 10.936111,0 0.35278,0.352777 -0.35278,-0.352777 m 17.63889,0 0.35278,0.352777 -0.35278,-0.352777 m -16.58056,0.352777 0.35278,0.352778 -0.35278,-0.352778 m 13.05278,0 v 0.352778 l 1.76389,0.705556 -1.76389,-1.058334 m 6.35,0.352778 0.35278,0.352778 -0.35278,-0.352778 m 2.82222,0 0.35278,0.352778 -0.35278,-0.352778 m 10.93611,0 0.35278,0.352778 -0.35278,-0.352778 m -6.70277,0.352778 -0.35278,0.352778 0.35278,-0.352778 m -36.33612,0.352778 -1.058331,0.705555 v -0.352778 l 1.058331,-0.352777 m 1.41112,0.352777 v 0.352778 l -1.05834,0.352778 v -1.058333 l 1.05834,0.352777 m 31.04444,-0.352777 0.35278,0.352777 -0.35278,-0.352777 m 10.93611,0 0.35278,0.352777 -0.35278,-0.352777 m -19.75555,0.352777 v 0.705556 h 1.05833 v -0.705556 h -1.05833 m -21.51945,0.470359 c 0.2727,0 0.0564,0.175648 -0.11747,0.117616 l 0.11747,-0.117616 m 3.52778,-0.117581 -1.05833,1.058334 1.05833,-1.058334 m 27.16389,0 0.35278,0.352778 -0.35278,-0.352778 m 10.93611,0 0.70555,0.705556 -0.70555,-0.705556 m -63.500001,2.116667 2.46944,-1.411111 c -1.21637,-0.283634 -1.85173,0.408552 -2.46944,1.411111 m 23.283331,-1.646308 c 0.2727,0 0.0564,0.175648 -0.11747,0.117616 l 0.11747,-0.117616 m 31.04445,-0.117581 0.70555,2.116667 h 0.35278 l -1.05833,-2.116667 m 1.76389,0 0.35277,2.469445 h 0.35278 l -0.70555,-2.469445 m -6.70278,0.352778 0.35278,0.352778 -0.35278,-0.352778 m 3.52778,0 0.35277,0.352778 -0.35277,-0.352778 m 11.28888,0.352778 0.35278,0.352777 -0.35278,-0.352777 m -25.4,0.352777 0.35278,0.352778 -0.35278,-0.352778 m 4.58612,0 v 0.352778 h 1.05833 l -1.05833,-0.352778 m 8.23136,0.235197 0.11783,0.235162 -0.11783,-0.235162 m 19.2853,-0.235197 2.46945,2.116667 4.93889,9.525 -2.82223,-4.938889 h -0.35277 l 1.05833,3.527778 c -2.02847,-1.171963 -5.06624,-7.911712 -5.29167,-10.230556 m -17.52141,0.587975 0.11783,0.235162 -0.11783,-0.235162 m -51.623031,0.117581 -2.46945,2.822222 2.46945,-2.822222 m 39.863891,0 0.35277,0.352778 -0.35277,-0.352778 m -45.508341,0.352778 -0.35278,0.352778 0.35278,-0.352778 m 3.52778,0 0.35278,0.352778 -0.35278,-0.352778 m 43.391671,0 -2.82222,3.880555 2.82222,-3.880555 m 1.41111,0 -0.35278,0.705555 h 0.70556 l -0.35278,-0.705555 m 2.46944,0 0.35278,0.352778 -0.35278,-0.352778 m -5.64444,0.352778 -1.05833,1.058333 v 0.352778 l 1.05833,-1.411111 m 25.87025,0.235196 0.11783,0.235162 -0.11783,-0.235162 m -27.98692,0.117581 0.35278,0.352778 -0.35278,-0.352778 m 7.87859,0.235197 0.11783,0.235162 -0.11783,-0.235162 m -17.05081,0.117581 0.35278,0.352778 -0.35278,-0.352778 m 1.76389,0 -0.70556,1.411111 h 0.35278 l 0.35278,-1.411111 m -28.927781,0.352778 0.35278,0.352778 -0.35278,-0.352778 m 40.922221,0 -2.46944,3.175 2.46944,-3.175 m 1.05834,0 -0.70556,1.411111 h 0.35278 l 0.35278,-1.411111 m 22.57777,0 0.35278,0.352778 -0.35278,-0.352778 m -40.21666,0.352778 -6.35,5.997222 c 1.37901,-0.715186 2.38583,-2.023674 3.78001,-2.663543 2.18652,-1.003758 4.78896,-0.131939 6.09777,-2.628124 l -2.82223,1.411111 1.76389,-2.116666 -4.23333,2.469444 1.76389,-2.469444 m -25.400001,0.352777 -1.41111,0.352778 v 0.352778 l 0.35277,0.705556 1.05834,-1.411112 m 37.394441,0.705556 1.05834,-0.352778 -1.05834,0.352778 m 33.86667,-0.705556 1.76389,3.527778 h 0.35278 l -2.11667,-3.527778 m -73.377781,0.705556 -0.35278,0.705556 0.35278,-0.705556 m 38.452781,0.352778 0.35278,0.352778 -0.35278,-0.352778 m 11.64167,0 0.35277,0.352778 -0.35277,-0.352778 m 18.34444,0 0.35278,1.058333 h 0.35278 l -0.70556,-1.058333 m -65.616671,0.352778 -2.46944,2.469444 2.46944,-2.469444 m 73.377781,0 -0.35278,0.352777 0.35278,-0.352777 m -77.611111,0.352777 0.35278,0.352778 -0.35278,-0.352778 m 41.275001,0 0.35278,0.352778 -0.35278,-0.352778 m -14.11111,0.352778 -0.35278,0.352778 0.35278,-0.352778 m 12.7,0.705556 1.05833,-0.352778 -1.05833,0.352778 m 4.93889,-0.705556 0.35278,0.352778 -0.35278,-0.352778 m 33.51389,0 3.52778,7.055556 c -1.40371,-0.960614 -3.68759,-5.371289 -3.52778,-7.055556 m -63.147231,0.705556 -2.82222,2.469444 v 0.352778 l 2.82222,-2.822222 m 2.82223,0 0.35277,0.352778 -0.35277,-0.352778 m 3.292471,0.235197 0.11783,0.235161 -0.11783,-0.235161 m 17.87419,-0.235197 -0.70555,1.058333 0.70555,-1.058333 m 2.11667,0.352778 v 0.352777 l 1.41111,-0.352777 h -1.41111 m 2.82222,-0.352778 0.35278,0.352778 -0.35278,-0.352778 m 23.28334,0 0.35277,0.352778 -0.35277,-0.352778 m 1.76388,0 0.35278,1.411111 h 0.35278 l -0.70556,-1.411111 m -61.736111,0.352778 0.35278,0.352777 -0.35278,-0.352777 m 4.93889,0 0.35278,0.352777 -0.35278,-0.352777 m 4.93889,0 -3.88055,3.175 3.88055,-3.175 m -20.813889,0.352777 -0.35278,0.352778 0.35278,-0.352778 m 8.113889,0 -2.11667,1.411111 1.05834,-0.352777 -1.05834,2.469444 h 0.35278 l 1.76389,-3.527778 m 18.344451,0 -0.70556,1.058334 0.70556,-1.058334 m 17.63888,0 -1.41111,1.411111 1.41111,-1.411111 m -49.38889,0.352778 -0.35277,0.352778 0.35277,-0.352778 m 29.163089,0.117581 0.23495,0.117616 -0.23495,-0.117616 m 50.917471,-0.117581 0.35278,0.352778 -0.35278,-0.352778 m -64.911111,0.352778 -1.76389,2.822222 1.76389,-2.822222 m 11.28889,0.352778 0.35278,0.352777 -0.35278,-0.352777 m -9.525,0.352777 0.35278,0.352778 -0.35278,-0.352778 m 8.81944,0 -1.41111,1.763889 1.41111,-1.763889 m 2.46945,0 -1.05834,1.411112 1.05834,-1.411112 m 2.116661,0 -4.233331,4.233334 4.938891,-4.233334 h -0.70556 m 52.91667,0 -0.35278,1.058334 0.35278,-1.058334 m -67.027781,0.352778 -2.11666,3.175 c 1.10807,-0.789869 2.41088,-1.707797 2.11666,-3.175 m -6.35,0.352778 0.35278,0.352778 -0.35278,-0.352778 m 36.688891,0 -0.35278,1.058333 h 0.35278 v -1.058333 m 31.39722,0.352778 -3.52777,4.938889 2.46944,-4.938889 h 1.05833 m 1.05834,0 -2.11667,4.233333 h -0.35278 l 2.46945,-4.233333 M 68.67367,30.691839 68.3209,32.10295 h -0.35278 l 0.70555,-1.411111 m 48.68334,0 -2.46945,4.233333 1.05834,-0.705556 -1.76389,4.586112 1.76389,-0.705556 c -1.02518,4.31412 -5.2705,8.865658 -2.82223,13.405556 h 0.35278 c -1.17757,-3.747206 0.61948,-8.44162 3.175,-11.288889 -0.21625,3.831166 -3.51543,5.837061 -2.46944,10.230555 h 0.35278 c -0.57256,-3.0861 0.37958,-5.552369 2.27859,-8.053916 0.93592,-1.232959 2.62996,-2.347384 2.98273,-3.938764 0.41734,-1.88207 -2.05387,-2.093736 -2.5474,-3.567642 -0.43251,-1.290814 0.31714,-2.849033 0.1083,-4.195233 m 8.93692,0.235196 0.11783,0.235056 -0.11783,-0.235056 m 6.93808,-0.235196 0.35278,0.352777 -0.35278,-0.352777 m 19.05,0.352777 c -0.35737,1.972734 -1.35149,3.375378 -3.175,4.233334 l 2.11667,-3.880556 -4.23334,4.586111 c 1.36596,-2.453922 2.29412,-4.922308 5.29167,-4.938889 m -64.911111,0 0.35277,0.352778 -0.35277,-0.352778 m 6.35,0 -0.35278,0.705556 0.35278,-0.705556 m 2.82222,0 0.35278,0.352778 -0.35278,-0.352778 m 41.980551,0 0.35278,0.352778 -0.35278,-0.352778 m 1.41112,0 0.35277,0.352778 -0.35277,-0.352778 m -48.565861,0.588081 0.11782,0.23495 -0.11782,-0.23495 m 3.4103,1.175808 1.41111,-1.411111 -1.41111,1.411111 m 20.813891,-1.411111 -2.46945,4.233334 h 0.35278 l 2.11667,-4.233334 m -45.86111,0.352778 -0.35278,0.352778 0.35278,-0.352778 m 16.933329,0 0.35278,0.352778 -0.35278,-0.352778 m 26.811111,0 -1.76389,3.527778 h 1.05834 l 0.70555,-3.527778 m 13.05278,0 0.35278,0.352778 -0.35278,-0.352778 m 9.87778,0 0.35278,0.352778 -0.35278,-0.352778 m 1.76389,0 -0.35278,2.116667 h 0.35278 v -2.116667 m 5.99722,0 -0.35278,1.058333 0.35278,-1.058333 m 9.17222,0 -0.70555,0.705555 0.70555,-0.705555 m -70.908331,0.352778 -0.70556,1.058333 0.70556,-1.058333 m 48.448031,0.235302 0.11783,0.23495 -0.11783,-0.23495 m 8.70197,-0.235302 v 1.411111 h 0.35278 l -0.35278,-1.411111 m 15.16944,0 -2.11666,2.469444 1.41111,-2.469444 h 0.70555 m -68.438891,0.352777 0.35278,0.352778 -0.35278,-0.352778 m 49.859151,0.235303 0.11782,0.23495 -0.11782,-0.23495 m 19.99085,-0.235303 -1.41111,1.411112 0.35278,-1.411112 h 1.05833 m -68.438891,0.352778 -2.11666,2.116667 c 1.15534,-0.327378 2.14489,-0.821267 2.11666,-2.116667 m 2.11667,0 -2.11667,2.116667 c 1.15535,-0.327378 2.14489,-0.821267 2.11667,-2.116667 m 25.047221,15.169445 1.05834,3.880558 h 0.35277 l 0.84773,-7.408336 6.20783,-7.408333 h 0.35278 l -0.70556,1.763889 h 0.35278 l 0.35278,-1.058334 c 2.63137,1.63442 2.46944,-3.437819 2.46944,-4.938889 -2.42852,0 -2.15829,1.649942 -3.175,3.175 -1.83938,2.759428 -4.91102,4.53002 -6.35,7.408334 -0.68439,1.368778 -0.55633,4.888089 -1.76389,4.586111 m 37.74723,-15.169445 -0.35278,0.352778 0.35278,-0.352778 m 4.58611,0 -0.70556,0.705556 0.70556,-0.705556 m -71.613891,0.352778 0.35278,0.352778 -0.35278,-0.352778 m 8.46666,0 -2.82222,2.822222 v 0.352778 c 1.46227,-0.428978 2.74073,-1.586442 2.82222,-3.175 m 36.336121,0 -0.35278,2.116667 h 0.35278 v -2.116667 m -49.388891,0.352778 -1.41112,1.763889 1.41112,-1.763889 m 10.58333,0 -4.23333,3.880555 c 1.67463,-0.782813 3.97016,-1.870075 4.23333,-3.880555 m 44.097221,0 0.35278,0.352778 -0.35278,-0.352778 m -52.563891,0.352778 -0.70555,1.058333 0.70555,-1.058333 m 2.11667,0 -4.23333,6.35 4.23333,-4.938889 v -1.411111 m 10.23056,0 0.35277,0.352777 -0.35277,-0.352777 m 36.688881,0 -0.35277,1.058333 h 0.35277 v -1.058333 m 1.52859,0.58808 0.11783,0.23495 -0.11783,-0.23495 m 5.64445,0 0.11782,0.23495 -0.11782,-0.23495 m -67.49804,0.117475 -0.35277,0.352778 0.35277,-0.352778 m 23.283339,0 -4.58611,5.644445 c 1.80199,-0.957086 4.51379,-3.4925 4.58611,-5.644445 m 40.216661,0 0.35278,0.352778 -0.35278,-0.352778 m -38.452771,0.352778 -0.35278,0.705556 0.35278,-0.705556 m 7.408331,0 -4.586111,5.997222 c 1.599141,-0.939447 4.633381,-4.106686 4.586111,-5.997222 m -22.460301,0.588081 0.11782,0.23495 -0.11782,-0.23495 m 4.82141,-0.235303 -1.41111,1.763889 1.41111,-1.763889 m 44.802781,0 v 1.058333 h 0.35278 l -0.35278,-1.058333 m 1.76389,0 v 1.058333 h 0.35278 l -0.35278,-1.058333 m 2.11666,0 -0.35277,1.411111 h 0.35277 V 35.27796 m 7.64364,0.235303 -0.11783,0.23495 0.11783,-0.23495 m -41.15752,0.117475 0.35277,0.352777 -0.35277,-0.352777 m 14.69919,0.235302 -0.11783,0.23495 0.11783,-0.23495 m 13.17025,-0.235302 v 1.058333 h 0.35278 l -0.35278,-1.058333 m 9.17222,0 0.35278,0.352777 -0.35278,-0.352777 m 5.64445,0 -0.35278,0.352777 0.35278,-0.352777 m 1.41111,0 -0.70556,0.705555 0.70556,-0.705555 m -67.027781,0.352777 -0.35278,0.705556 0.35278,-0.705556 m 33.866671,0 -0.35278,0.705556 0.35278,-0.705556 m -31.632531,0.588081 0.11783,0.23495 -0.11783,-0.23495 m 42.803941,0 -0.11783,0.23495 0.11783,-0.23495 m -35.513081,2.234142 2.46944,-1.763889 -2.46944,1.763889 m 7.05556,-2.116667 c -2.60104,2.124075 -4.83165,4.930422 -5.99723,8.113889 h 0.35278 l 5.64445,-8.113889 m 2.11666,0 -1.05833,1.411111 1.05833,-1.411111 m 3.175001,0 -4.586111,5.291667 v 0.352777 c 2.09197,-0.626533 4.930781,-3.268486 4.586111,-5.644444 m 4.58611,0 0.35278,0.352778 -0.35278,-0.352778 m 25.75278,0 0.35278,0.352778 -0.35278,-0.352778 m 1.76389,0 0.35278,0.352778 -0.35278,-0.352778 m 10.93611,0 -0.35278,0.352778 0.35278,-0.352778 m -36.33611,0.352778 -0.70556,1.411111 h 0.35278 l 0.35278,-1.411111 m 5.99722,0 0.35278,0.352777 -0.35278,-0.352777 m 14.46389,0 -0.70555,3.527777 h -0.35278 l 1.05833,-3.527777 m 6.70278,0 -0.35278,1.411111 h 0.35278 v -1.411111 m 3.52778,0 0.35277,0.352777 -0.35277,-0.352777 m -60.677781,0.352777 -0.35278,0.352778 0.35278,-0.352778 m 2.82222,0 0.35278,0.352778 -0.35278,-0.352778 m 4.23333,0 0.35278,0.352778 -0.35278,-0.352778 m 33.161121,0 -1.05834,2.469445 h -0.35278 l 1.41112,-2.469445 m 13.05277,0 -0.70555,3.175 h 0.35278 l 0.35277,-3.175 m -44.097221,0.352778 0.35278,0.352778 -0.35278,-0.352778 m 42.686111,0 0.35278,0.352778 -0.35278,-0.352778 M 68.3209,38.100182 67.96812,38.45296 68.3209,38.100182 m 27.516659,0 -0.70555,1.058333 0.70555,-1.058333 m 12.347231,0 -0.35278,0.705556 0.35278,-0.705556 m 4.82141,0.117475 0.23495,0.117828 -0.23495,-0.117828 m 5.76192,-0.117475 -0.35278,0.352778 0.35278,-0.352778 m -32.808331,0.352778 -0.70556,1.058333 0.70556,-1.058333 m 11.87696,0.117475 0.23495,0.117828 -0.23495,-0.117828 m 5.761921,-0.117475 -3.175,3.527778 c 1.4471,-0.680509 2.87938,-1.897592 3.175,-3.527778 m 5.99723,0 0.35277,0.352778 -0.35277,-0.352778 m 27.86944,0 0.35278,0.352778 -0.35278,-0.352778 m -53.975001,0.352778 0.35278,0.352777 -0.35278,-0.352777 m 27.163891,0 -0.35278,0.705555 0.35278,-0.705555 m 1.76389,0 -1.76389,3.880555 2.82222,-3.527778 -1.05833,-0.352777 m -8.11389,0.352777 0.35278,0.352778 -0.35278,-0.352778 m 3.175,0 -0.35278,0.705556 0.35278,-0.705556 m 1.76389,0 0.35278,0.352778 -0.35278,-0.352778 m 5.29167,0 -2.82223,6.35 h 0.35278 l 2.46945,-6.35 m -31.397231,0.352778 -0.35277,0.705556 0.35277,-0.705556 m 4.23334,0 -1.76389,2.822222 h 0.35278 l 2.11666,-2.822222 h -0.70555 m 7.05555,0 -0.35278,0.705556 0.35278,-0.705556 m 2.46945,0 -2.46945,1.763889 v 0.352778 l 1.05834,-0.352778 -0.35278,0.705556 1.76389,-2.469445 m 21.166661,0 -0.35277,1.411111 h -0.35278 l 0.70555,-1.411111 m -33.161111,0.352778 -1.76389,2.822222 h 0.35278 l 1.41111,-2.822222 m 19.050001,0 0.35278,0.352778 -0.35278,-0.352778 m 4.93889,0 -1.41111,3.880556 h 0.35278 l 1.05833,-3.880556 m 19.75556,0.352778 -0.35278,1.763889 h -0.35278 v -1.763889 h 0.70556 m -35.983341,1.411111 1.41111,-0.705556 -1.41111,0.705556 m 14.111111,-1.058334 -0.70555,1.411112 h 0.35278 l 0.35277,-1.411112 m -17.286111,0.352778 -0.70555,1.763889 h 0.35278 l 1.05833,-1.763889 h -0.70556 m 13.758341,0 -0.70556,3.527778 h 0.35278 l 0.35278,-3.527778 m 26.57581,0.235303 0.11782,0.23495 -0.11782,-0.23495 m -60.0897,0.117475 0.35277,0.352778 -1.76388,1.763889 1.41111,-2.116667 m 28.927779,0.352778 -2.46945,3.880555 h 0.35278 l 2.11667,-3.880555 m 22.930551,0 0.35278,0.352778 -0.35278,-0.352778 m 13.05278,0 -0.35278,0.352778 0.35278,-0.352778 m -53.622221,0.352778 -0.35278,0.352777 0.35278,-0.352777 m 28.692471,0.235302 0.11783,0.23495 -0.11783,-0.23495 m -14.816671,0.352778 0.11783,0.23495 -0.11783,-0.23495 m 6.938091,-0.235303 -0.35278,1.411112 h 0.35278 v -1.411112 m 23.87141,0.470253 0.23495,0.117828 -0.23495,-0.117828 m -39.746411,0.235303 -0.35278,0.705556 0.35278,-0.705556 m 24.694441,0 v 1.058333 h 0.35278 l -0.35278,-1.058333 m -1.41111,0.352778 0.35278,0.352778 -0.35278,-0.352778 m -9.877781,0.352778 0.35278,0.352777 -0.35278,-0.352777 m -4.23333,0.352777 -1.41111,3.880556 h 0.35277 l 1.05834,-3.880556 m 5.997221,0 0.35278,0.352778 -0.35278,-0.352778 m 5.99722,0 0.35278,0.352778 -0.35278,-0.352778 m -22.577781,0.352778 0.35278,0.352778 -0.35278,-0.352778 m 2.46945,0 -0.35278,0.705556 0.35278,-0.705556 m 11.99444,0 -1.41111,4.938889 h 0.35278 l 1.05833,-4.938889 m 9.995261,0.235303 0.11782,0.23495 -0.11782,-0.23495 m 1.41111,0 0.11782,0.23495 -0.11782,-0.23495 m -31.161921,0.117475 -0.35278,0.352778 0.35278,-0.352778 m 11.99444,0 0.35278,0.352778 -0.35278,-0.352778 m 9.525001,0 -0.35278,2.116667 h 0.35278 V 44.80296 m 1.41111,0 0.35278,0.352778 -0.35278,-0.352778 m 1.41111,0 -0.35277,0.705555 0.35277,-0.705555 m -25.047221,0.352778 -0.35278,0.352777 0.35278,-0.352777 m 10.58334,0 0.35277,0.352777 -0.35277,-0.352777 M 71.4959,45.508515 69.02645,47.97796 71.4959,45.508515 m 15.874999,0 0.35277,0.352778 -0.35277,-0.352778 m 3.52777,0 0.35278,0.352778 -0.35278,-0.352778 m 6.70278,0 -0.35278,0.705556 0.35278,-0.705556 m 7.055561,0 -0.35278,1.058334 h 0.35278 v -1.058334 m 3.88055,0 0.35278,0.352778 -0.35278,-0.352778 m 1.88137,0.235303 0.11782,0.23495 -0.11782,-0.23495 m -36.45359,0.117475 v 0.352778 l -3.88056,3.175 3.88056,-3.527778 m 14.816669,0 0.35278,0.352778 -0.35278,-0.352778 m 7.05555,0 0.35278,0.352778 -0.35278,-0.352778 m 7.173031,0.235303 0.11783,0.23495 -0.11783,-0.23495 m -74.20081,0.117475 v 1.411111 h 0.35278 l -0.35278,-1.411111 m 68.086119,0.352778 -0.35278,1.058333 h 0.35278 v -1.058333 m 13.405551,0 0.70556,1.411111 -0.70556,-1.411111 m -7.76111,0.352778 0.35278,0.352777 -0.35278,-0.352777 m -2.46944,0.352777 v 1.411111 h 0.35277 l -0.35277,-1.411111 m 5.64444,0 0.35278,0.352778 -0.35278,-0.352778 m -3.52778,0.352778 0.35278,0.352778 -0.35278,-0.352778 m -5.997221,0.352778 0.35278,0.352778 -0.35278,-0.352778 m 9.525001,0 v 1.763889 h 0.35278 l -0.35278,-1.763889 m -29.986111,0.352778 -2.469449,2.82222 2.469449,-2.82222 m 1.76389,0 -0.35278,0.352777 0.35278,-0.352777 m 3.88055,0 -3.88055,3.175 1.05833,-2.116667 2.82222,-1.058333 m 20.461121,0 0.35277,0.352777 -0.35277,-0.352777 m 7.40833,0 v 1.058333 h 0.35278 l -0.35278,-1.058333 m -80.78611,0.352777 v 1.411112 h 0.35277 l -0.35277,-1.411112 m 67.380549,0 0.35278,0.352778 -0.35278,-0.352778 m -18.69722,0.352778 -1.05833,0.705556 1.05833,-0.705556 m 5.99722,0 -1.05833,0.705556 1.05833,-0.705556 m 16.58056,0 v 1.411111 h 0.352781 l -0.352781,-1.411111 m 10.936111,0 v 1.058334 h 0.35278 l -0.35278,-1.058334 m -38.1,0.352778 -1.05833,1.058333 1.05833,-1.058333 m 14.816669,0 -1.05834,1.411111 1.05834,-1.411111 m -19.755559,0.352778 -2.11667,1.763889 2.11667,-1.763889 m 16.227779,0 -0.35278,0.352778 0.35278,-0.352778 m 11.28889,0 0.35278,0.352778 -0.35278,-0.352778 m 14.111111,0 v 1.763889 h 0.35278 l -0.35278,-1.763889 m -80.78611,0.705555 0.35277,0.352778 -0.35277,-0.352778 m 82.19722,0 0.35278,0.352778 -0.35278,-0.352778 m -41.62778,0.352778 -6.35,5.997216 c 1.12289,-2.40805 3.81177,-5.13432 6.35,-5.997216 m 19.049999,0 -2.82222,4.586116 2.82222,-4.586116 m -59.619439,0.352776 0.35277,0.35278 -0.35277,-0.35278 m 43.39166,0 v 0.35278 l -1.05833,1.41111 -0.70556,0.70556 -6.70277,5.29166 c 1.12183,-3.23567 5.22781,-6.8079 8.46666,-7.76111 m 11.288889,0 -3.52778,4.23334 3.52778,-4.23334 m 1.76389,0 c -0.49706,2.07363 -1.45097,3.66607 -3.175,4.93889 l 3.175,-4.93889 m -56.444439,0.70556 v 2.82222 h 0.35277 l -0.35277,-2.82222 m 34.57222,0 -1.05833,1.05833 1.05833,-1.05833 m 16.933329,0 -2.82222,2.82222 2.82222,-2.82222 m 9.17223,0 -3.52778,5.99722 3.52778,-5.99722 m 21.989691,0.2353 0.11783,0.23495 -0.11783,-0.23495 m 3.52778,0 0.11783,0.23495 -0.11783,-0.23495 m -19.873031,0.47025 -0.35278,1.41111 h -0.35278 l 0.70556,-1.41111 m 4.93889,0 -0.35278,1.05834 h -0.35278 l 0.70556,-1.05834 m 9.172221,0 v 1.05834 h 0.35278 l -0.35278,-1.05834 m -32.808331,0.35278 -1.058339,1.41111 1.058339,-1.41111 m 14.46389,0 -2.11667,3.52778 2.11667,-3.52778 m -26.811119,0.35278 -2.46944,2.82222 2.46944,-2.82222 m 37.04167,0 -0.35278,1.41111 h -0.35277 l 0.70555,-1.41111 m -28.22222,0.35278 c -1.54376,1.69651 -3.65019,2.85785 -5.25992,4.58611 -5.03555,5.40596 -8.9415,11.70798 -11.32064,18.697218 1.1998,0.2032 0.5207,2.53823 0.35278,3.52778 h -0.35278 v -0.70556 H 55.6209 l -2.31952,13.05278 -1.20826,9.172224 h -0.35278 l 1.05833,-8.819444 c -1.06539,-0.79446 -0.39299,-2.35585 -0.12559,-3.52778 0.53517,-2.34739 1.12043,-9.48972 3.65337,-10.23056 v -0.35278 l -0.70555,-1.05833 h -0.35278 c -1.08127,4.56248 -3.19723,8.67763 -3.77966,13.40556 -0.87031,7.06437 -0.0173,14.059964 -2.92312,20.813894 h -0.35278 l 2.46945,-14.816674 h -0.35278 l -3.52778,16.227784 h -0.35278 c 0.0579,-6.88622 2.34668,-14.122764 3.88056,-20.813894 h -0.35278 l -4.23333,17.991674 h -0.35278 l 3.52778,-23.988894 h -0.35278 l -4.93889,24.341664 h -0.35278 l 3.175,-20.108334 H 46.0959 c -0.93487,6.35494 -2.84445,12.441414 -4.2284,18.697224 -0.45508,2.0567 -0.24483,5.85294 -2.1216,7.05556 l 2.11172,-11.64167 7.76605,-27.163894 h 0.35278 l -2.82222,10.58334 h 0.35278 l 5.29166,-15.52223 h 0.35278 l -3.88055,20.10834 h 0.35277 c 1.78083,-8.63318 4.82706,-16.79963 8.78558,-24.694448 1.16205,-2.31704 5.55167,-5.41867 4.97276,-8.11389 2.17487,-2.61549 5.67513,-6.21312 9.17222,-6.70277 m 20.108329,0 -1.76389,2.46944 1.76389,-2.46944 m 3.52778,0.35277 -0.70555,3.175 h -0.35278 l 1.05833,-3.175 m -2.11667,0.35278 -0.35277,1.41111 h -0.35278 l 0.70555,-1.41111 m 12.347231,0 3.52777,7.76111 c -2.16323,-1.73073 -3.94123,-4.89267 -3.52777,-7.76111 m -33.86667,0.35278 0.35278,0.35278 c -1.33033,1.88842 -3.38702,4.23509 -5.64445,4.93888 0.65934,-2.30046 3.28225,-4.12996 5.29167,-5.29166 m 2.82222,0 c -1.1871,2.6984 -3.86962,5.73969 -6.70278,6.70278 1.38183,-2.67794 3.95394,-5.42855 6.70278,-6.70278 m 43.74445,0.35278 1.05833,2.11666 c -1.00718,-0.53128 -1.58679,-1.0167 -1.05833,-2.11666 m -58.91389,0.35278 -4.93889,6.70277 h -0.35278 l 5.29167,-6.70277 m 16.580549,0.35277 -3.427229,4.58611 -8.21443,9.87778 h -0.35278 c 1.8923,-5.09905 7.41468,-11.59122 11.994439,-14.46389 m 37.041671,0 0.35278,2.46945 c -0.88159,-0.72285 -0.90382,-1.50142 -0.35278,-2.46945 m -34.219451,0.35278 c -1.80516,3.38173 -6.668199,8.0264 -10.230549,9.525 2.5026,-3.40007 6.304489,-7.83061 10.230549,-9.525 m 4.23334,0 c -1.88278,3.37855 -5.2772,8.43174 -9.172219,9.525 l 9.172219,-9.525 m 38.452781,0 0.70555,1.41111 -0.70555,-1.41111 m -31.044451,1.05833 -3.52778,4.23334 c 0.70203,-1.80235 1.7653,-3.37468 3.52778,-4.23334 m -30.691669,0.70556 -5.99722,7.76111 c 0.0794,-2.66594 3.6957,-6.67879 5.99722,-7.76111 m 2.11667,0 v 0.70555 H 61.9709 l 0.70555,-0.70555 m 17.638889,0 c -1.63795,3.28824 -5.022499,6.43643 -8.466669,7.76111 1.7706,-2.83034 5.473699,-6.30308 8.466669,-7.76111 m 15.875,0 0.35278,5.99722 h -0.35278 l -0.70555,-5.99722 h 0.70555 m -80.786109,0.35278 0.35278,0.35277 -0.35278,-0.35277 m 71.613889,0 c -0.80187,2.06974 -2.40771,3.97474 -4.58611,4.58611 l 4.58611,-4.58611 m 15.875001,0 -0.35278,0.35277 0.35278,-0.35277 m 14.11111,0 2.82222,5.29166 h -0.35278 l -2.46944,-5.29166 m -33.161111,0.35277 -0.70556,1.05834 0.70556,-1.05834 m 38.452781,0 1.05833,1.76389 h -0.35278 l -0.70555,-1.76389 m -94.54445,0.35278 -0.70555,33.866668 0.49953,-7.76111 0.5588,-18.344448 -0.35278,-7.76111 m 81.84445,0.35278 -0.35278,0.35278 0.35278,-0.35278 m -19.050001,0.35278 c -0.27976,2.51142 -2.23626,4.49297 -4.58611,5.29166 l 4.58611,-5.29166 m -7.40834,0.35277 c -0.94756,2.23767 -2.59327,3.88938 -4.93889,4.58612 l 4.93889,-4.58612 m -22.930549,0.35278 c -1.10138,3.00849 -3.55671,7.09577 -5.99723,9.17222 0.81139,-3.41453 3.13373,-7.1381 5.99723,-9.17222 m 2.11666,0.35278 c -0.47131,1.9872 -2.12619,4.91455 -4.23333,5.29167 l -4.23333,10.936108 h -0.35278 c 0.54222,-2.91007 1.87043,-10.295468 5.29167,-10.936108 0.55386,-2.1964 1.68733,-3.96417 3.52777,-5.29167 m -45.86111,0.70556 0.35278,0.35277 -0.35278,-0.35277 m 50.8,0 -6.70278,9.877768 h 0.35278 l 1.76389,-2.116658 -6.73982,20.813888 -3.49073,16.933334 h -0.35278 l 3.175,-18.344444 h -0.35278 l -0.35278,2.11666 h -0.35278 l 4.93889,-15.875 H 58.7959 l -0.70556,1.41111 h -0.35278 c 1.27565,-5.51109 4.30036,-12.106268 9.525,-14.816658 m 19.402779,0 c -1.37442,2.75166 -4.11974,5.06165 -7.05556,5.99722 v -0.35278 l 7.05556,-5.64444 m 38.100001,0 -0.35278,0.35277 0.35278,-0.35277 m -29.633331,0.70555 0.35278,5.64445 h -0.35278 v -5.64445 m 27.986921,0.2353 0.11783,0.23495 -0.11783,-0.23495 m -91.8397,0.11748 v 1.05833 h 0.35278 l -0.35278,-1.05833 m 37.39444,0 -4.93889,7.05555 h -0.35277 c 0.85513,-2.96827 2.78624,-5.2906 5.29166,-7.05555 m 40.56945,0 0.35278,1.76389 h -0.35278 v -1.76389 m 11.64167,0.70555 -0.35278,0.35278 0.35278,-0.35278 m -38.452781,0.35278 -3.175,3.175 3.175,-3.175 m -65.263889,0.35278 0.35278,0.35278 -0.35278,-0.35278 m 13.75833,0 -3.175,45.508332 h 0.35278 c 0.79869,-10.122254 1.47073,-20.276604 2.18158,-30.338894 0.29633,-4.18923 2.27647,-11.271248 0.64064,-15.169438 m 80.43334,0 1.05833,1.76389 h -0.35278 l -0.70555,-1.76389 m -93.83889,1.05833 0.35277,0.35278 -0.35277,-0.35278 m 0.35277,0.70556 0.35278,1.76389 h 0.35278 l -0.70556,-1.76389 m 68.674199,0.2353 -0.11783,0.23495 0.11783,-0.23495 m -7.64364,0.11748 -2.46945,1.41111 2.46945,-1.41111 m 5.29167,0 -2.46945,1.41111 2.46945,-1.41111 m -32.102779,0.35277 -1.76389,3.88056 h -0.35278 l 2.11667,-3.88056 m 18.34444,0 -3.88055,5.644448 c -0.49036,-2.371368 1.91523,-4.727218 3.88055,-5.644448 m 2.46945,0 -2.46945,2.82223 2.46945,-2.82223 m -18.69723,0.70556 -3.88055,8.819438 h -1.41111 l 0.70555,-2.11666 h 0.35278 l -0.35278,1.76389 h 0.35278 c 0.67063,-2.82364 1.96392,-6.584948 4.23333,-8.466668 m -37.74722,0.35278 0.67381,10.583328 2.50119,28.222224 h 0.35278 c 0.0208,-7.535334 -1.25413,-14.730584 -1.73214,-22.225004 -0.33302,-5.22287 0.33267,-11.64695 -1.79564,-16.580548 m 101.24723,0 0.70555,7.055548 h 0.35278 c 0.0956,-2.38125 0.40252,-5.005208 -1.05833,-7.055548 m -105.48056,0.35278 v 0.70555 l 0.70555,-0.70555 h -0.70555 m 5.99722,0 0.35278,0.35277 -0.35278,-0.35277 m 56.79722,0 v 0.35277 l -1.76389,0.70556 1.76389,-1.05833 m 3.527779,0.35277 -1.05833,0.70556 1.05833,-0.70556 m -52.563889,0.35278 v 1.05833 h 0.35278 l -0.35278,-1.05833 m 104.775,0.35278 v 1.05833 h -0.35277 l 0.35277,-1.05833 m -112.18333,1.05833 v 1.411108 h 0.35278 l -0.35278,-1.411108 m -7.40833,0.70556 -0.35278,1.411108 h 0.35278 v -1.411108 m 38.80555,0 -0.35278,0.352778 0.35278,-0.352778 m 81.13889,0.352778 -0.35278,0.35277 0.35278,-0.35277 m -70.90833,0.35277 0.35277,0.35278 -0.35277,-0.35278 m 8.11389,0 c -0.71332,1.43969 -1.5233,3.21451 -3.175,3.52778 -1.03858,7.70714 -3.15631,15.57585 -5.64445,22.93056 h -0.35278 l 1.41111,-7.40834 h -0.35277 l -4.93889,16.933344 h -0.35278 l 2.15194,-7.05556 3.84528,-16.580554 h -0.35278 l -6.70277,22.930554 h -0.35278 l 2.2359,-9.877784 3.05577,-12.7 c -0.98425,-0.94085 -0.14464,-2.39254 0.28504,-3.52777 1.00189,-2.64866 1.78364,-7.24994 4.30107,-8.81945 -1.78153,4.59352 -3.83717,9.1313 -4.23334,14.11111 h 0.35278 c 0.51506,-3.03071 1.96003,-10.25948 4.58611,-11.99444 l -2.82222,14.46389 h 0.35278 c 0.67451,-4.86199 1.42099,-9.97621 3.52778,-14.46389 l 0.35277,0.70555 2.82223,-3.175 m -49.38889,0.35278 v 1.41111 h 0.35277 l -0.35277,-1.41111 m 6.70277,0 v 3.175 h 0.35278 l -0.35278,-3.175 m 28.22223,0 -0.35278,1.05833 h -0.35278 l 0.70556,-1.05833 m 15.52222,0 -0.70556,1.76389 1.41111,-1.05833 -4.58611,7.76111 H 65.1459 l 3.52777,-6.70278 -1.05833,0.70556 1.76389,-2.46945 m -64.20556,0.35278 0.35278,0.35278 -0.35278,-0.35278 m 122.41389,0 0.35278,0.35278 -0.35278,-0.35278 m -117.12222,0.70555 -0.35278,2.11667 h 0.35278 v -2.11667 m 60.325,0 -0.35278,0.35278 0.35278,-0.35278 m -11.28889,0.70556 0.35278,0.35278 -0.35278,-0.35278 m -53.50464,0.58808 0.11762,0.23495 -0.11762,-0.23495 m 42.21575,-0.2353 -0.70555,1.05833 0.70555,-1.05833 m 21.87222,0 -1.05833,1.05833 0.35278,-1.05833 h 0.70555 m 56.09167,0.70555 0.35278,0.35278 -0.35278,-0.35278 m 1.76389,0 v 4.93889 h 0.35278 l -0.35278,-4.93889 M 6.23201,74.789066 c 1.3312,6.43255 4.318,13.95907 7.40833,19.75556 h 0.35278 c -2.35162,-6.09565 -3.81,-14.5348 -7.76111,-19.75556 m 118.29803,0.2353 0.11783,0.23495 -0.11783,-0.23495 m -6.46748,0.11748 0.35278,0.35278 -0.35278,-0.35278 m -69.85,0.35278 v 1.05833 h -0.35278 l 0.35278,-1.05833 m 18.34445,0 -0.35278,0.35277 0.35278,-0.35277 m 51.50555,0.35277 -0.35277,0.70556 0.35277,-0.70556 m -48.33055,0.35278 v 0.35278 l -1.76389,0.70556 v -0.35278 l 1.76389,-0.70556 m -23.28334,0.35278 -0.70555,1.05833 0.70555,-1.05833 m 11.28889,0 -0.35278,0.35278 0.35278,-0.35278 m 57.97303,0.2353 0.11783,0.23495 -0.11783,-0.23495 m 10.81864,-0.2353 0.35278,0.35278 -0.35278,-0.35278 m -70.90833,0.35278 v 1.05833 h 0.35277 l -0.35277,-1.05833 m 20.461109,0 v 0.70555 l -0.705559,-0.70555 h 0.705559 m -50.799999,0.35278 v 4.23333 h 0.35277 l -0.35277,-4.23333 m 28.22222,0 -1.05833,3.175 h -0.35278 l 1.41111,-3.175 m 63.85278,0 0.35278,0.35277 -0.35278,-0.35277 m 9.17222,0 -1.05833,5.99722 h 0.35277 l 0.70556,-5.99722 m -2.11667,0.35277 v 1.76389 h 0.35278 l -0.35278,-1.76389 m -10.93611,0.35278 0.35278,0.35278 -0.35278,-0.35278 m 1.41111,0.35278 -0.35277,1.05833 0.35277,-1.05833 m 2.11667,0 0.35278,0.35278 -0.35278,-0.35278 m -47.97778,0.47025 c 0.2727,0 0.0565,0.17569 -0.11747,0.11783 l 0.11747,-0.11783 m -21.16667,0.2353 c -2.782,9.73209 -5.09905,19.58376 -7.9322,29.280564 -0.81633,2.79294 -0.0938,8.56862 -2.65113,10.23056 l 1.05833,-7.76111 -0.70555,0.35277 1.05833,-8.11389 h -0.35278 l -1.61431,9.87778 -0.85513,4.58611 c -2.02283,-6.90844 3.18382,-15.93321 4.70923,-22.577774 0.5648,-2.46098 0.79375,-6.622 3.05188,-8.11389 -2.43558,6.53415 -4.52825,14.517864 -4.58611,21.519444 h 0.35278 l 7.76111,-29.280564 h 0.70555 m 19.75556,0 -0.35278,0.35278 0.35278,-0.35278 m -47.625,0.35278 v 1.05834 h 0.35278 l -0.35278,-1.05834 m 23.98889,0 -2.11667,5.99722 h -0.35278 l 2.46945,-5.99722 m 1.76389,0 -1.76389,4.58611 h -0.35278 l 2.11667,-4.58611 m 27.51666,0.35278 v 0.35278 h -1.41111 l 1.41111,-0.35278 m 51.15278,0 c -0.0557,1.78012 -0.45614,5.83636 -2.46944,6.35 l -0.70556,5.29167 h 0.35278 c 0.79587,-3.22157 4.16207,-8.41869 2.82222,-11.64167 m 3.52778,0 -0.35278,2.46944 h 0.35278 v -2.46944 m -58.20833,0.35278 -2.82223,2.11666 2.82223,-2.11666 m -62.67687,0.58808 0.11762,0.23495 -0.11762,-0.23495 m 108.53798,-0.2353 0.35278,0.35277 -0.35278,-0.35277 m -42.68611,0.70555 -0.70556,0.70556 v -0.70556 h 0.70556 m -47.625,0.70556 0.35277,0.35277 -0.35277,-0.35277 m -6.70278,0.35277 v 1.05834 h 0.35278 l -0.35278,-1.05834 m 100.18889,0 -1.41111,5.29167 h 0.35278 l 1.05833,-5.29167 m -111.125,0.35278 0.35277,0.35278 -0.35277,-0.35278 m 4.58611,0 0.70555,1.05834 -0.70555,-1.05834 m 115.00556,0 -2.46945,7.76111 h 0.35278 l 1.76389,-4.93889 h 0.35278 l -2.82223,11.99445 h 0.35278 l 3.52778,-12.34722 -1.05833,0.35277 0.70555,-2.82222 h -0.70555 m -62.08889,0.35278 -3.175,12.7 h -0.35278 c 0.0748,-3.63149 0.87983,-10.05699 3.52778,-12.7 m -39.74642,0.58808 0.11783,0.23495 -0.11783,-0.23495 m 35.51308,-0.2353 0.35278,0.35278 -0.35278,-0.35278 m 10.93611,0 v 0.35278 l -2.46944,0.70555 2.46944,-1.05833 m -4.58611,0.35278 -0.35278,0.35277 0.35278,-0.35277 m 57.97303,0.2353 0.11783,0.23495 -0.11783,-0.23495 m -122.88414,0.11747 1.05833,1.05834 -1.05833,-1.05834 m 117.82778,0 -0.70556,3.175 h 0.35278 l 0.35278,-3.175 m -107.24445,0.35278 0.70556,2.46945 h 0.35278 l -1.05834,-2.46945 m 7.76112,0 2.11666,16.933344 h 0.35278 C 24.27483,96.573806 22.64923,88.656406 20.6959,84.314066 m 4.58611,0 0.35277,0.35278 -0.35277,-0.35278 m 99.60081,0.58808 0.11782,0.23495 -0.11782,-0.23495 m -99.95359,0.11748 v 3.175 h 0.35278 l 0.35277,-3.175 h -0.70555 m 9.525,0 0.35278,0.35277 -0.35278,-0.35277 m 39.86389,0 0.35278,0.35277 -2.46945,0.70556 v -0.35278 l 2.11667,-0.70555 m -70.90834,0.35277 1.05834,1.05834 -1.05834,-1.05834 m 4.93889,0 4.05342,14.11112 1.94381,11.994444 1.41111,-0.35278 C 15.62683,104.81364 12.74005,97.639546 10.65584,91.722406 9.90901,89.601856 9.72909,87.198376 8.34867,85.372396 m 61.03056,0 v 0.35278 l -1.41111,0.70556 1.41111,-1.05834 m -35.27778,0.70556 -0.35278,2.46945 h 0.35278 v -2.46945 m 14.93414,0.2353 0.11783,0.23495 -0.11783,-0.23495 m 17.52142,-0.2353 -0.35278,2.11667 h -0.35278 l 0.70556,-2.11667 m 57.50278,0.70556 0.35277,0.35277 -0.35277,-0.35277 m -119.2389,0.35277 0.35278,0.35278 -0.35278,-0.35278 m 9.17223,0 4.93889,19.755564 h 0.35277 C 18.52455,100.87769 18.03136,91.999686 13.99312,87.136286 m 56.44444,0 v 0.35278 l -3.52778,1.76389 -0.35277,-0.35278 3.88055,-1.76389 m 5.644449,0.35278 v 0.35278 l -1.058339,0.35278 1.058339,-0.70556 m 39.628581,0.2353 0.11783,0.23495 -0.11783,-0.23495 m 2.70475,-0.2353 -2.82222,7.40834 h 0.35278 l 3.52777,-7.40834 h -0.35277 -0.70556 m -77.25833,0.70556 v 1.05833 h -0.35278 l 0.35278,-1.05833 m 19.75555,0 -0.35278,2.11666 h 0.35278 v -2.11666 m -35.98333,0.35278 v 5.29166 h 0.35278 l -0.35278,-5.29166 m 21.87222,0 -0.35278,2.46944 h 0.35278 v -2.46944 m 68.43889,0 0.35278,0.35277 -0.35278,-0.35277 m 8.11389,0 -1.05833,3.52777 h 0.35277 l 0.70556,-3.52777 m -89.60556,0.35277 v 1.41111 h 0.35278 l -0.35278,-1.41111 m 39.51111,0 v 0.35278 l -4.23333,0.70556 4.23333,-1.05834 m 2.822229,0 v 0.35278 H 75.02367 l 1.058339,-0.35278 m -11.288889,0.35278 -1.05834,5.64445 h -0.35277 l 1.41111,-5.64445 m 50.09444,0 0.35278,0.35278 -0.35278,-0.35278 m -74.20081,0.58808 -0.11782,0.23495 0.11782,-0.23495 m 41.392479,0.47025 -0.35278,0.35278 0.35278,-0.35278 m 32.102781,0.35278 0.35278,0.35278 -0.35278,-0.35278 m 5.29166,0 -0.35277,1.41111 h 0.35277 v -1.41111 m 4.93889,0 -3.175,7.76111 h 0.35278 l 2.82222,-7.76111 m -43.038891,0.35278 v 0.35278 l -2.46944,0.70555 2.46944,-1.05833 m 32.455561,0.35278 -0.35278,0.70555 0.35278,-0.70555 m -73.84803,0.58808 -0.11783,0.23495 0.11783,-0.23495 m 30.80914,-0.2353 v 0.35277 l -1.76389,0.35278 v -0.70555 h 1.76389 m 15.522219,0 -0.35277,0.35277 0.35277,-0.35277 m 34.572231,0 -3.175,6.70277 c 1.55822,-1.33491 3.7659,-4.57235 3.175,-6.70277 m -54.44526,0.58808 -0.11783,0.23495 0.11783,-0.23495 m 9.289699,0.11747 v 0.35278 l -3.527779,1.05833 3.527779,-1.41111 m 10.23056,0 -0.35278,0.35278 0.35278,-0.35278 m 27.163881,0 0.35278,0.35278 -0.35278,-0.35278 m 2.11667,0 0.35278,0.35278 -0.35278,-0.35278 m 3.52778,0 0.35278,0.35278 -0.35278,-0.35278 m 3.175,0 -3.52778,8.113894 c 1.8101,-1.430164 4.18395,-5.754864 3.52778,-8.113894 m -82.19722,0.35278 -2.11667,7.408334 h -0.35278 l 2.46945,-7.408334 m 45.508329,0 v 0.35278 l -1.76389,0.35277 1.76389,-0.70555 m -57.855559,0.35278 v 3.52777 h 0.35278 l -0.35278,-3.52777 m 91.01667,0 -0.70555,1.76389 h 0.35277 l 0.35278,-1.76389 m -37.394441,0.35277 -0.70556,0.70556 0.70556,-0.70556 m 33.513891,0 0.35277,0.35278 -0.35277,-0.35278 m -46.21389,0.35278 -0.35278,0.35278 0.35278,-0.35278 m 55.85636,0.2353 0.11783,0.23495 -0.11783,-0.23495 m -38.923031,0.11748 v 0.35278 l -2.46944,0.70555 2.46944,-1.05833 m 28.575001,0.35278 0.35278,0.35278 -0.35278,-0.35278 m 9.87778,0.35278 -0.35278,2.82222 h 0.35278 v -2.82222 m -109.59642,0.58808 0.11783,0.23495 -0.11783,-0.23495 m 51.38808,-0.23531 -3.52777,4.58611 c 0.7567,-1.90993 1.62242,-3.65689 3.52777,-4.58611 m 9.87778,0 v 0.35278 l -4.93889,0.70556 4.93889,-1.05834 m -14.11111,0.70556 -0.35278,0.35278 0.35278,-0.35278 m 55.73889,0 -0.35278,0.70555 0.35278,-0.70555 m -49.03611,0.70555 -7.40834,9.525004 c 1.54482,-3.71016 3.72075,-7.611884 7.40834,-9.525004 m -53.26945,0.35278 0.35278,0.35278 -0.35278,-0.35278 m 9.87778,0 -0.70555,12.347224 h 0.35277 c 1.8729,-3.57293 1.05834,-8.41233 1.05834,-12.347224 h -0.70556 m 50.44722,0 v 0.70556 l -4.58611,1.05833 4.58611,-1.76389 m 0.705559,0 -0.352779,0.35278 0.352779,-0.35278 m 38.100001,0 0.35278,0.35278 -0.35278,-0.35278 m -44.45,0.35278 -2.11667,3.527784 -3.175,2.46944 c 1.30352,-2.33891 2.86985,-4.737454 5.29167,-5.997224 m 46.56667,0 0.35277,0.35278 -0.35277,-0.35278 m -54.68056,0.35278 -0.35278,1.41111 h -0.35278 l 0.70556,-1.41111 m 52.21111,0 0.35278,0.35278 -0.35278,-0.35278 m 10.70081,0.2353 0.11783,0.23495 -0.11783,-0.23495 m -91.48692,0.11748 -0.35278,0.35277 0.35278,-0.35277 m 90.31111,0 -1.76389,4.938884 h 0.35278 l 1.41111,-4.938884 m -9.87778,0.35277 0.35278,0.35278 -0.35278,-0.35278 m 4.23334,0.35278 -1.05834,1.411114 1.05834,-1.411114 m 3.52778,0.35278 -7.40834,13.758334 c 2.88431,-2.34985 4.23334,-6.27803 5.85682,-9.525 0.65475,-1.30951 1.80022,-2.74002 1.55152,-4.233334 m 3.175,0 0.35277,0.35278 -0.35277,-0.35278 m -51.50556,0.35278 v 0.35277 l -3.88056,1.411124 c 0.84385,-1.449224 2.2913,-1.634074 3.88056,-1.763894 m 51.15278,0.35277 -6.85271,13.758344 -4.0834,4.58611 -1.05834,2.82222 h 0.35278 l 5.29167,-7.40833 h 0.35278 l -4.23334,9.17222 c 3.12561,-2.58974 5.50122,-8.61519 7.05556,-12.34722 h -0.35278 l -1.76389,2.11666 c 1.43792,-3.45263 6.10658,-8.81838 5.29167,-12.700004 m 1.64641,0.940864 -0.11783,0.23495 0.11783,-0.23495 m -115.24086,0.11748 0.35278,0.35278 -0.35278,-0.35278 m 49.74167,0 -1.76389,3.88055 h -0.35278 l 2.11667,-3.88055 m 54.32778,0 0.35278,0.35278 -0.35278,-0.35278 m 3.88055,0 -1.05833,1.41111 1.05833,-1.41111 m -95.25,0.70555 0.35278,2.46945 h 0.35278 l -0.70556,-2.46945 m 91.01667,0 0.35278,0.35278 -0.35278,-0.35278 m 11.28889,0 v 1.05834 h -0.35278 l 0.35278,-1.05834 m -115.00556,0.35278 c 1.49155,8.03487 1.05834,16.5481 1.05834,24.69445 h 0.35277 c 0.0152,-5.53438 0.0734,-11.0416 -10e-4,-16.58056 -0.0307,-2.28459 -0.0173,-6.27803 -1.4097,-8.11389 m 65.969449,0 v 0.35278 l -3.527779,0.35278 3.527779,-0.70556 m -7.055559,0.35278 v 0.35278 l -2.46944,1.05833 2.46944,-1.41111 m 44.09722,0 -0.35277,1.05833 0.35277,-1.05833 M 6.35,102.89382 6.46761,103.12877 6.35,102.89382 m 30.57408,0.11747 -0.70555,3.175 h -0.35278 l 1.05833,-3.175 m 33.51389,0.35278 v 0.35278 l -2.46944,1.05833 2.46944,-1.41111 m 44.09723,0 0.35277,0.35278 -0.35277,-0.35278 m 6.35,0 0.35277,0.35278 -0.35277,-0.35278 m -85.72501,0.35278 -0.35277,2.11667 h -0.35278 l 0.70555,-2.11667 m 81.25637,0.2353 0.11783,0.23495 -0.11783,-0.23495 m 4.11586,0.11748 -1.05834,0.70555 -0.70555,1.76389 c 1.06892,-0.54786 1.86831,-1.20826 1.76389,-2.46944 m -8.81945,0.35278 0.35278,0.35277 -0.35278,-0.35277 m -39.51111,0.47025 c 0.2727,0 0.0565,0.17568 -0.11747,0.11783 l 0.11747,-0.11783 m 43.74445,-0.11748 0.35277,0.35278 -0.35277,-0.35278 m -0.35278,0.70556 0.35278,0.35278 -0.35278,-0.35278 m -115.00556,0.35278 0.70556,1.05833 -0.70556,-1.05833 m 6.35,0.35277 0.35278,2.46945 h 0.35278 l -0.70556,-2.46945 m 13.75834,0 -0.70556,0.70556 1.05833,8.11389 h 0.35278 l -0.70555,-8.81945 m 38.45277,0 -3.175,7.05556 h -0.35277 c 0.38523,-2.60773 1.4679,-5.34882 3.52777,-7.05556 m 2.46945,0 -2.46945,3.52778 2.46945,-3.52778 m 3.52778,0 -2.82223,3.175 2.82223,-3.175 m 3.175,0 v 0.35278 l -1.41112,0.35278 1.41112,-0.70556 m -32.57304,0.94086 -0.11782,0.23495 0.11782,-0.23495 m 36.45359,-0.2353 v 0.35278 h -1.05833 l 1.05833,-0.35278 m 46.21389,0.35278 -3.52778,6.70278 h 0.35278 c 1.27917,-1.78612 3.58422,-4.36669 3.175,-6.70278 m -117.475,0.35278 0.35278,0.35277 -0.35278,-0.35277 m 52.21111,0 -2.11667,8.11388 c -0.25576,-2.38689 0.52,-6.28614 2.11667,-8.11388 m 3.175,0 -2.11667,5.99722 h -0.35277 l 1.76389,-5.99722 h 0.70555 m -20.81389,0.35277 -3.175,12.7 h -0.35278 c 0.50977,-3.78671 1.48837,-9.45867 3.52778,-12.7 m 15.875,0 v 1.41111 h -0.35278 l 0.35278,-1.41111 m 17.99167,0.35278 v 0.35278 l -2.11667,0.70555 2.11667,-1.05833 m -3.88056,0.35278 -3.175,2.82222 3.175,-2.82222 m -57.85555,0.35278 0.35277,0.35277 -0.35277,-0.35277 m -7.05556,0.35277 0.35278,2.82223 h 0.35278 l -0.70556,-2.82223 m 44.09722,0 c -0.055,1.72156 0.84561,4.19594 -0.70555,5.29167 l 0.70555,-5.29167 m -37.04166,0.35278 v 1.05834 H 7.9963 l -0.35277,-1.05834 m 42.68611,0 -1.05833,2.82222 1.05833,-2.82222 m 10.58333,0 -2.11666,4.23334 h -0.35278 l 2.46944,-4.23334 m -33.51389,0.70556 v 2.11666 h 0.35278 l -0.35278,-2.11666 m 10.93611,0 0.35278,0.35278 -0.35278,-0.35278 m 27.86945,0 -1.05833,1.05833 1.05833,-1.05833 m -32.80833,0.35278 -0.35278,0.35277 0.35278,-0.35277 m 8.81944,0.35277 v 4.93889 h -0.35278 l 0.35278,-4.93889 m -34.21945,0.35278 0.35278,0.35278 -0.35278,-0.35278 m 29.63334,0.35278 -0.35278,0.35278 0.35278,-0.35278 m 24.34167,0.35278 -2.46945,4.58611 1.41111,-1.41111 -2.82222,3.88055 1.41111,-2.46944 -0.35278,-0.35278 -1.41111,-0.35278 -2.46944,3.175 c 1.25553,-2.25213 4.26755,-6.18807 6.70278,-7.05555 m -61.03056,0.35277 0.35278,0.35278 -0.35278,-0.35278 m 117.475,0 -0.35278,0.35278 0.35278,-0.35278 m -117.35742,0.94086 0.11762,0.23495 -0.11762,-0.23495 m 7.29075,-0.2353 v 1.76389 h 0.35278 l -0.35278,-1.76389 m 48.68334,0 -1.05834,2.11667 h -0.35277 l 1.41111,-2.11667 m 9.17222,0 v 0.35278 l -1.41111,0.35278 1.41111,-0.70556 m 51.85833,0 -0.35277,0.35278 0.35277,-0.35278 m -91.01666,0.35278 0.35277,0.35278 -0.35277,-0.35278 m 85.725,0 0.35277,0.35278 -0.35277,-0.35278 m -89.25278,0.70555 c -0.96944,1.53071 -2.82681,5.16784 -0.35278,5.99723 l 0.35278,-5.99723 m 26.81111,0 -2.46945,4.58611 1.76389,-4.58611 h 0.70556 m 64.20556,0 -1.05834,1.41111 1.05834,-1.41111 m -113.59445,0.35278 0.35278,0.35278 -0.35278,-0.35278 m 13.40556,0 0.70555,8.11389 -0.70555,-0.35278 v 6.35 c 2.51354,-1.91346 1.72931,-11.82864 0,-14.11111 m 96.77858,0.2353 0.11783,0.23495 -0.11783,-0.23495 m -84.43136,0.11748 0.35278,0.35278 -0.35278,-0.35278 m 26.45833,0 -1.05833,3.52778 h -0.35278 l 1.41111,-3.52778 m 55.38611,0 -1.41111,3.175 h 0.35278 l 1.05833,-3.175 m -107.12686,0.58808 0.11761,0.23495 -0.11761,-0.23495 m 61.97131,-0.2353 v 0.35277 l -2.46945,1.41112 2.46945,-1.76389 m -39.86389,0.35277 -0.70556,3.88056 h -0.35278 l 1.05834,-3.88056 m 20.81389,0 -0.70556,2.46945 h -0.35278 l 0.35278,-2.46945 h 0.70556 m 11.17141,0.23531 -0.11783,0.23495 0.11783,-0.23495 m 14.22859,-0.23531 v 0.35278 l -1.76389,0.35278 1.76389,-0.70556 m 40.92222,0 0.35278,0.35278 -0.35278,-0.35278 M 8.70186,116.06407 v 1.05834 h 0.35278 l -0.35278,-1.05834 m 38.45278,0.35278 -1.41111,4.58611 h -0.35278 c 0.0399,-1.86725 0.43109,-3.23462 1.76389,-4.58611 m 3.52778,0 -1.05834,1.76389 1.05834,-1.76389 m -19.40278,0.35278 -0.35278,0.35278 0.35278,-0.35278 m 88.54722,0.35278 -5.29166,10.93611 c 2.35655,-1.80764 6.15456,-7.82461 5.29166,-10.93611 m -118.41575,0.58808 0.11761,0.23495 -0.11761,-0.23495 m 40.80464,-0.23531 -0.70556,2.11667 h -0.35277 l 0.35277,-2.11667 h 0.70556 m 12.22975,0.23531 -0.11783,0.23495 0.11783,-0.23495 m 55.15081,-0.23531 0.35277,0.35278 -0.35277,-0.35278 m 2.46944,0 -3.52778,4.93889 c 1.45133,-1.07138 3.43183,-3.05788 3.52778,-4.93889 m -102.89364,0.58808 0.11783,0.23495 -0.11783,-0.23495 m 26.34086,0.11748 c 0.41875,1.524 0.21872,2.93617 -0.70555,4.23333 -0.41875,-1.524 -0.21873,-2.93617 0.70555,-4.23333 m 26.10556,0 -2.11667,2.11667 2.11667,-2.11667 m 41.98055,0 0.35278,0.35278 -0.35278,-0.35278 M 1.6463,118.53352 1.99908,118.88629 1.6463,118.53352 m 32.45556,0 -0.35278,0.35277 0.35278,-0.35277 m 5.99722,0 -0.70555,3.175 h -0.35278 l 1.05833,-3.175 m 25.04723,0 -2.11667,1.76389 2.11667,-1.76389 m 41.62777,0 -0.35277,1.05833 h 0.35277 v -1.05833 m 2.11667,0 -0.35278,1.05833 h 0.35278 v -1.05833 M 0,119.1216 0.11761,119.35655 0,119.1216 m 37.98242,-0.23531 -0.70556,2.82223 h -0.35278 l 1.05834,-2.82223 m 65.26389,0 -0.35278,0.70556 0.35278,-0.70556 m -94.19167,0.35278 0.35278,0.35278 -0.35278,-0.35278 m 25.04722,0 -1.05833,2.46945 h -0.35278 l 0.70556,-2.46945 h 0.70555 m 15.875,0 -1.41111,2.11667 1.41111,-2.11667 m -5.29167,0.35278 -1.41111,2.82222 1.41111,-2.82222 m 72.31945,0 -1.41111,3.175 h 0.35278 l 1.05833,-3.175 m -63.14722,0.35278 -0.35278,0.35278 0.35278,-0.35278 m 48.33055,0 0.35278,0.35278 -0.35278,-0.35278 m -50.44722,0.35278 -2.11667,2.82222 1.41111,-2.82222 h 0.70556 m 56.09167,0 0.35278,0.35277 -0.35278,-0.35277 m -85.25475,0.58808 0.11783,0.23495 -0.11783,-0.23495 m 35.51308,-0.23531 c -0.36266,2.04082 -1.30951,4.59282 -3.175,5.64445 l 3.175,-5.64445 m -52.21111,0.35278 0.35278,0.35278 -0.35278,-0.35278 m 50.44722,0 -2.46944,2.82222 2.46944,-2.82222 m 5.64445,0 -3.175,5.29167 c 0.37888,-2.12478 1.4679,-3.97334 3.175,-5.29167 m -61.73612,0.35278 0.70556,4.58611 H 1.29353 L 0.94075,121.35574 H 0.23519 m 9.17223,0 0.35277,0.35278 -0.35277,-0.35278 m 29.28055,0 v 0.70555 h -0.70555 v -0.70555 h 0.70555 m 4.23334,0 -1.41112,2.11667 0.70556,-2.11667 h 0.70556 m 68.43889,0 -3.175,4.93889 3.175,-4.93889 m -97.01389,0.35278 0.35277,0.35277 -0.35277,-0.35277 m 32.80833,0 -2.11667,2.82222 2.11667,-2.82222 M 9.87767,122.2966 9.9955,122.53155 9.87767,122.2966 m 31.27975,-0.23531 c -0.15417,1.35255 -0.47378,1.97627 -1.76389,2.46945 l 1.76389,-2.46945 m 18.34444,0 c -1.07385,2.76825 -2.53788,7.03616 -5.29167,8.46667 0.53975,-2.71145 3.10621,-6.77898 5.29167,-8.46667 m 52.91667,0 0.35278,0.35278 -0.35278,-0.35278 m -79.02222,0.35278 -1.05834,2.11667 1.05834,-2.11667 m -15.16945,0.35278 -0.35278,7.05556 1.41111,0.70555 c 0,-2.44545 0.64135,-5.80672 -1.05833,-7.76111 m 16.22778,0 v 3.175 h -0.35278 l 0.35278,-3.175 m 18.69722,0 -1.05833,1.41111 0.35278,-1.41111 h 0.70555 m 58.91389,0 -4.93889,8.81944 c 1.97909,-1.52823 5.39715,-6.1916 4.93889,-8.81944 m -74.08333,0.35278 h 0.35277 c 0.25048,1.07879 0.23601,1.50565 -0.70555,2.11666 l 0.35278,-2.11666 m 24.34166,0 -1.41111,2.82222 h -0.35278 l 1.76389,-2.82222 m 50.8,0 -1.05833,1.76389 1.05833,-1.76389 m 2.11667,0 -3.52778,5.99722 c 1.36208,-1.4224 3.53166,-3.9691 3.52778,-5.99722 m -78.31667,0.35278 -1.41111,2.11666 c 0.0928,-1.20297 0.23954,-1.72896 1.41111,-2.11666 m 11.28889,0 -1.76389,2.46944 1.76389,-2.46944 m 58.91389,0 -1.05833,1.76388 1.05833,-1.76388 m 12.34722,0 -1.41111,3.175 h -0.35277 l 1.76388,-3.175 m -88.9,0.35277 -0.70555,2.82223 h -0.35278 l 1.05833,-2.82223 m 14.11111,0 c -0.43779,1.46862 -0.96273,2.37631 -2.46944,2.82223 0.4378,-1.46862 0.96273,-2.37632 2.46944,-2.82223 m -38.80555,0.35278 -0.70556,7.76111 h 0.70556 v -7.76111 m 45.15555,0 -1.41111,2.11667 1.41111,-2.11667 m 3.88056,0.35278 -2.46944,2.82222 2.46944,-2.82222 m 47.625,0.35278 -0.70555,1.05833 0.70555,-1.05833 m -69.14444,0.70555 -1.76389,3.175 1.76389,-3.175 m 18.69722,0 -1.41111,2.82222 h -0.35278 l 1.76389,-2.82222 m 52.91667,0 0.35277,0.35278 -0.35277,-0.35278 m 0.70555,0 0.35278,0.35278 -0.35278,-0.35278 m -63.85278,0.35278 -2.11666,2.46944 c 0.35701,-1.35219 0.75035,-2.05881 2.11666,-2.46944 m 20.46111,0 -0.35277,0.35278 0.35277,-0.35278 m -60.91297,0.58808 0.11761,0.23495 -0.11761,-0.23495 m 103.95186,-0.2353 0.35278,0.35278 -0.35278,-0.35278 m -59.97222,0.35278 -1.76389,2.11666 1.76389,-2.11666 m 3.175,0 -1.05833,1.76388 0.35277,-1.76388 h 0.70556 m 52.56389,0 -0.70556,1.05833 0.70556,-1.05833 m 6.70278,0 -1.05834,1.41111 1.05834,-1.41111 m -78.31667,0.35277 -0.70556,2.46945 h -0.35277 l 1.05833,-2.46945 m 4.58611,0 -0.70555,2.82223 h -0.35278 l 0.35278,-2.82223 h 0.70555 m 1.41111,0 0.35278,1.41111 h 0.35278 l 1.41111,-1.05833 -1.76389,2.46945 v -1.41112 h -0.35278 l -1.05833,1.41112 1.05833,-2.82223 m 4.23334,0 -2.11667,2.11667 c 0.4198,-1.29681 0.73272,-1.88666 2.11667,-2.11667 m -8.81945,0.35278 -1.41111,3.175 1.41111,-3.175 m 23.98889,0 c -0.50765,1.41464 -0.97472,2.69275 -2.46944,3.175 l 2.46944,-3.175 m 49.38889,0.35278 -0.70556,1.05833 0.70556,-1.05833 m -57.85556,0.35278 -0.70555,1.76389 h -0.35278 l 1.05833,-1.76389 m 3.175,0 -2.11666,3.175 1.41111,-3.175 h 0.70555 m -6.70277,0.35277 -1.76389,1.76389 1.76389,-1.76389 m 17.99166,0 -1.05833,1.76389 0.35278,-1.76389 h 0.70555 m 44.80278,0.70556 1.05833,-0.35278 -1.05833,0.35278 m -48.33056,-0.35278 -1.76388,2.46945 1.76388,-2.46945 m 56.44445,0 0.35278,0.35278 -0.35278,-0.35278 m -55.03333,0.35278 -1.41112,2.11667 1.41112,-2.11667 m 44.09722,0 0.35278,0.35278 -0.35278,-0.35278 m 3.88055,0 0.35278,0.35278 -0.35278,-0.35278 m -62.08889,0.35278 -1.76388,1.76389 1.76388,-1.76389 m 7.40834,0 c -0.15628,1.39982 -0.5013,2.16006 -1.76389,2.82222 l 1.76389,-2.82222 m 46.213889,0 0.35278,0.35278 -0.35278,-0.35278 m -66.674999,0.35278 -0.70556,2.82222 h -0.35278 l 1.05834,-2.82222 m 8.81944,0 -1.41111,1.41111 1.41111,-1.41111 m 62.08889,0 -2.11667,2.46944 2.11667,-2.46944 m 7.76111,0 -0.35278,0.70555 0.35278,-0.70555 m 2.82222,0 -0.35277,0.70555 0.35277,-0.70555 m -66.32222,0.35277 -1.41111,2.11667 1.41111,-2.11667 m -8.46667,0.35278 -1.41111,1.41111 0.70556,-1.41111 h 0.70555 m -17.28611,0.35278 -0.35277,2.11667 h 0.35277 v -2.11667 m 11.64167,0 c 0.18415,1.09079 0.0286,1.4605 -1.05833,1.76389 l 1.05833,-1.76389 m 1.76389,0 -1.05833,1.76389 1.05833,-1.76389 m 2.11667,0.35278 -1.41112,1.05833 0.35278,-1.41111 1.05834,0.35278 m 5.29166,-0.35278 -1.41111,1.41111 1.41111,-1.41111 m 63.85278,0 -3.175,4.58611 c 1.48167,-0.81068 3.1182,-2.85362 3.175,-4.58611 m 3.52778,0.35278 -0.70556,1.05833 0.70556,-1.05833 m -87.48889,0.35277 v 0.35278 l 1.05833,0.35278 -1.05833,-0.70556 m 27.86944,0.35278 -2.11666,2.82222 2.11666,-2.82222 m 11.28889,0 -0.35278,0.35278 0.35278,-0.35278 m 31.397229,0 -0.35278,0.70556 0.35278,-0.70556 m -63.500009,0.35278 -0.70555,0.70556 v -0.70556 h 0.70555 m 10.58334,0 -1.05834,0.70556 1.05834,-0.70556 m 3.88055,0 -1.05833,1.05833 0.35278,-1.05833 h 0.70555 m 67.38056,0 -0.35278,0.70556 0.35278,-0.70556 m -101.24722,0.35278 1.41111,1.76389 -1.41111,-1.76389 m 44.45,0 -0.70556,2.46944 h -0.35278 l 0.35278,-2.46944 h 0.70556 m 47.97778,0 -3.527781,5.64444 c 1.44603,-1.11689 3.792011,-3.71898 3.527781,-5.64444 m 5.99722,0 0.35278,0.35278 -0.35278,-0.35278 m -70.20278,0.35278 -1.05833,0.70555 1.05833,-0.70555 m 6.70278,0 -0.35278,0.35277 0.35278,-0.35277 m 8.11389,0 -1.05834,1.05833 0.35278,-1.05833 h 0.70556 m 6.35,0 -0.70556,0.70555 v -0.70555 h 0.70556 m 32.808329,0 -1.41111,2.11666 h 0.35278 l 1.05833,-2.11666 m -62.559139,0.58808 -0.11783,0.23495 0.11783,-0.23495 m 6.46747,-0.23531 -1.05833,1.05834 0.35278,-1.05834 h 0.70555 m 71.61389,0 0.35278,0.35278 -0.35278,-0.35278 m 2.82222,0 -0.35277,0.70556 0.35277,-0.70556 m -79.375,0.35278 -0.70555,1.05833 v -1.05833 h 0.70555 m 1.41111,0 -1.05833,1.05833 0.35278,-1.05833 h 0.70555 m 1.76389,0 -0.70555,1.05833 -0.35278,-0.35277 0.35278,-0.70556 h 0.70555 m 7.05556,0 -1.41111,1.41111 1.41111,-1.41111 m 6.35,0 -1.76389,2.46945 1.76389,-2.46945 m 7.76111,0 0.35278,0.35278 -1.05834,1.05833 0.70556,-1.41111 m 1.76389,0 -0.70556,1.05833 v -1.05833 h 0.70556 m -27.86945,0.70556 -0.70555,1.41111 0.70555,-1.41111 m 67.380559,0 0.35278,0.35277 -0.35278,-0.35277 m 9.172221,1.05833 1.05834,-1.05833 -1.05834,1.05833 m 3.88056,-1.05833 -7.40833,7.40833 c 2.4959,-1.53882 6.99523,-4.23792 7.40833,-7.40833 m -70.90834,0.70555 -1.41111,1.41111 0.35278,-1.41111 h 1.05833 m 11.28889,0 -1.41111,2.11667 0.70556,-2.11667 h 0.70555 m 45.861119,0 0.35277,0.35278 -0.35277,-0.35278 m -69.497229,0.35278 -0.35278,0.35278 0.35278,-0.35278 m 3.88056,0 -0.35278,1.76389 h -0.35278 v -1.76389 h 0.70556 m 6.70278,0 -1.05834,1.76389 0.35278,-1.76389 h 0.70556 m 8.11388,0 -1.05833,2.82222 h -0.35278 l 0.70556,-2.82222 h 0.70555 m 6.35,0 -1.41111,2.46944 0.35278,-2.46944 h 1.05833 m 38.100009,0 0.35277,0.35278 -0.35277,-0.35278 m -57.855559,0.35278 v 2.11666 h -1.05833 l 0.35277,-2.11666 h 0.70556 m 3.88055,0 -1.41111,2.11666 c 0.0928,-1.20297 0.23954,-1.72896 1.41111,-2.11666 m 22.225,0 -1.76388,2.46944 1.76388,-2.46944 m 34.219449,0 0.35278,0.35278 -0.35278,-0.35278 m 13.405561,0 -1.41112,1.76389 1.41112,-1.76389 m -71.61389,0.35278 -1.76389,2.11666 1.76389,-2.11666 m 61.030549,0 -0.35278,0.70555 0.35278,-0.70555 m -54.680549,0.35277 -1.41112,1.05834 1.41112,-1.05834 m 3.175,0 -2.46945,2.82223 1.76389,-2.82223 h 0.70556 m 9.17222,0 -0.70556,1.41111 0.70556,-1.41111 m 3.175,0 -1.05834,1.05834 1.05834,-1.05834 m 46.21389,0 0.35278,0.35278 -0.35278,-0.35278 m -76.90556,0.35278 v 1.05833 h -0.35278 l 0.35278,-1.05833 m 3.175,0 -0.35278,1.76389 h -0.35277 v -1.76389 h 0.70555 m 65.616669,0.35278 0.35278,0.35278 -0.35278,-0.35278 m -55.738889,0.70555 v 0.35278 l -1.41111,0.70556 0.35278,-1.41111 1.05833,0.35277 m 8.81944,-0.35277 c 0.22719,1.39523 -0.17533,2.13712 -1.41111,2.82222 l 1.41111,-2.82222 m -17.63889,0.35277 c 0.18415,1.09079 0.0286,1.4605 -1.05833,1.76389 l 0.35278,-1.76389 h 0.70555 m 7.05556,0 -0.35278,1.41112 h -0.35278 l 0.70556,-1.41112 m 4.58611,0 -2.11667,3.175 c 0.2466,-1.54763 0.7359,-2.40735 2.11667,-3.175 m 51.858339,0 -0.70556,0.35278 v 0.35278 l 0.70556,-0.70556 m 10.583331,0 -1.05833,1.41112 1.05833,-1.41112 m -77.25834,0.35278 -0.35277,0.35278 0.35277,-0.35278 m 19.40278,0 -0.35278,0.35278 0.35278,-0.35278 m -14.81666,0.35278 c 0.18415,1.09079 0.0286,1.4605 -1.05834,1.76389 l 1.05834,-1.76389 m 2.11666,0 -1.41111,1.76389 1.41111,-1.76389 m 2.11667,0 -1.05833,1.05833 1.05833,-1.05833 m 13.40555,0 -1.41111,1.76389 0.70556,-1.76389 h 0.70555 m 46.213889,0 -0.35277,0.70556 0.35277,-0.70556 m 2.11667,0 -0.35278,1.05833 h 0.35278 v -1.05833 m -46.919439,0.70556 -1.41112,1.76388 1.41112,-1.76388 m 44.097219,0.35277 -4.58611,4.58611 v 0.35278 c 1.9625,-0.76094 4.30847,-2.74426 4.58611,-4.93889 m -66.674999,0.35278 v 1.41111 h 1.41111 l -1.76389,2.11667 v -1.41111 l -1.05833,0.35278 0.70555,-2.46945 h 0.70556 m 10.93611,0 c -0.54363,1.91488 -2.4885,3.37079 -4.23333,4.23333 0.35207,-1.44921 0.94085,-2.32233 2.46944,-2.46944 l 1.76389,-1.76389 m 14.46389,0 -0.70556,1.05833 0.70556,-1.05833 m -24.34167,0.35278 -0.35278,0.35278 0.35278,-0.35278 m 5.99722,0 -0.70555,1.05833 -0.35278,-0.35278 0.35278,-0.70555 h 0.70555 m 16.58056,0 -0.35278,0.35278 0.35278,-0.35278 m 44.802779,0 0.35278,0.35278 -0.35278,-0.35278 m 10.583331,0 -0.35278,0.70555 0.35278,-0.70555 m -62.08889,0.35278 -1.76389,2.82222 1.05834,-2.82222 h 0.70555 m -1.76389,0.35277 -0.35278,0.35278 0.35278,-0.35278 m 33.51389,0 -2.82222,3.175 2.82222,-3.175 m 11.641669,0 0.35278,0.35278 -0.35278,-0.35278 m 7.76111,0 -0.35278,0.70556 0.35278,-0.70556 m 9.877781,0 0.35278,0.35278 -0.35278,-0.35278 m -78.1992,0.58809 0.11783,0.23495 -0.11783,-0.23495 m 3.05753,-0.23531 -1.41111,2.46945 1.41111,-2.46945 m 1.76389,0 -1.41111,1.76389 1.41111,-1.76389 m 8.81944,0 -1.05833,1.41111 1.05833,-1.41111 m 4.58611,0.35278 -1.41111,1.76389 0.70556,-1.76389 h 0.70555 m 41.980559,0 0.35278,0.35278 -0.35278,-0.35278 m 10.58333,0 0.35278,0.35278 -0.35278,-0.35278 m 12.700001,0 0.35278,0.35278 -0.35278,-0.35278 m -63.85277,0.35278 -1.76389,1.76389 1.05833,-1.76389 h 0.70556 m 24.69444,0 -1.76389,2.11666 1.76389,-2.11666 m 23.283329,0 -0.35277,0.70555 0.35277,-0.70555 m -46.566659,0.35278 -1.41111,1.41111 1.41111,-1.41111 m 49.036109,0 -2.11667,2.82222 2.11667,-2.82222 m 4.586111,0 -8.466671,9.17222 c 2.45639,-1.87149 8.353781,-5.82119 8.466671,-9.17222 m 8.46667,0 0.35277,0.35277 -0.35277,-0.35277 m -61.03056,0.35277 v 0.70556 h -0.70556 l 0.70556,-0.70556 m 37.394449,0 0.35277,0.35278 -0.35277,-0.35278 m 2.46944,0 -3.88056,3.52778 v 0.35278 l 3.175,-1.41111 -0.70555,-0.70556 1.41111,-1.76389 m -50.447219,0.35278 -2.11667,2.46945 c 0.28363,-1.3903 0.74048,-2.06128 2.11667,-2.46945 m 65.26389,0 -0.70556,1.41111 h 0.35278 l 0.35278,-1.41111 m 5.99722,0 -0.35278,0.70556 0.35278,-0.70556 m 1.76389,0 -0.35278,1.05833 h -0.35278 l 0.70556,-1.05833 m -70.55556,0.35278 -1.41111,2.11667 1.41111,-2.11667 m 38.452779,0 0.35278,0.35278 -0.35278,-0.35278 m 6.35,0 -0.35278,0.70555 0.35278,-0.70555 m 20.461111,0 c -2.49132,2.60138 -7.129291,5.66385 -8.113891,9.17222 2.28283,-1.84044 7.729011,-6.22053 8.113891,-9.17222 m -73.025,0.35278 -1.76389,2.11666 1.76389,-2.11666 m 59.972219,0 -2.11666,2.82222 2.11666,-2.82222 m -14.46389,0.35277 -0.35277,0.70556 0.35277,-0.70556 m 19.75556,0 -5.99722,4.93889 v 0.35278 c 2.04293,-0.90911 5.44583,-3.01695 5.99722,-5.29167 m 10.583331,0 -2.82222,4.23334 c 1.36913,-0.85584 2.82046,-2.56046 2.82222,-4.23334 m -46.21389,0.35278 -0.70555,1.05834 0.70555,-1.05834 m -27.16389,0.35278 -2.11666,3.175 1.41111,-3.175 h 0.70555 m 22.93056,0 0.35278,0.35278 -0.35278,-0.35278 m 22.930559,0 -1.41112,1.76389 1.41112,-1.76389 m 3.175,0 0.35277,0.35278 -0.35277,-0.35278 m 17.638891,0 -5.997231,6.35 6.702781,-6.35 h -0.70555 m -71.61389,0.35278 -1.41112,2.11666 1.41112,-2.11666 m 12.34722,0 -0.70556,1.41111 h -0.35278 l 0.35278,-1.41111 h 0.70556 m 14.81666,0 0.35278,0.35278 -0.35278,-0.35278 m 11.99445,0.70555 v 0.35278 l 1.76389,-0.70555 -1.76389,0.35277 m 24.341669,-0.70555 -1.76389,2.11666 1.76389,-2.11666 m -38.452779,2.46944 v 0.35278 l 5.99722,-2.11667 -5.99722,1.76389 m -17.28611,-1.76389 -1.41111,1.41111 1.41111,-1.41111 m 16.58055,1.05834 1.76389,-0.70556 -1.76389,0.70556 m 51.15278,-1.05834 -3.52778,5.29167 c 1.63654,-1.18075 3.32634,-3.21663 3.52778,-5.29167 m -62.08889,0.35278 v 0.35278 l -2.11667,1.41111 2.11667,-1.76389 m -21.16667,0.35278 -1.41111,3.175 1.41111,-3.175 m 5.64445,0 -1.76389,2.11667 1.76389,-2.11667 m 4.58611,0 -2.11667,3.175 1.41111,-3.175 h 0.70556 m 32.80833,0 -4.23333,3.52778 v 0.35277 c 1.53741,-0.77117 3.80471,-2.13748 4.23333,-3.88055 m 2.46945,0 -0.35278,0.70555 0.35278,-0.70555 m 10.936109,0 -0.35278,0.70555 0.35278,-0.70555 m 10.93611,0 -0.35278,0.70555 0.35278,-0.70555 m -50.799999,0.35278 -2.46944,2.82222 2.46944,-2.82222 m 44.802779,0 0.35278,0.35277 -0.35278,-0.35277 m -57.855559,0.35277 -1.76389,2.46945 c 0.21026,-1.30881 0.4632,-2.04823 1.76389,-2.46945 m 35.63056,0 -1.76389,2.11667 1.76389,-2.11667 m 26.458329,0 -5.99722,6.35 c 1.88912,-1.0922 6.04696,-4.00438 5.99722,-6.35 m -63.852779,0.35278 -1.76389,2.82222 c -0.0815,-1.47355 0.32033,-2.36749 1.76389,-2.82222 m 10.93611,0 -1.76388,2.11667 1.76388,-2.11667 m 31.75,0 0.35278,0.35278 -0.35278,-0.35278 m 18.344449,0 c -2.59856,2.59856 -5.01791,5.25745 -8.46667,6.70278 v 0.35278 c 2.80706,-0.0536 8.28358,-4.15149 8.46667,-7.05556 m -55.033329,0.70556 -1.76389,2.46944 1.05833,-2.46944 h 0.70556 m 35.98333,0 -3.52778,2.46944 v 0.35278 l 3.52778,-2.82222 m -19.05,0.35278 0.35278,0.35277 -0.35278,-0.35277 m 27.51667,0 -2.11667,1.76388 v 0.35278 l 2.11667,-2.11666 m 3.880549,0 0.35278,0.35277 -0.35278,-0.35277 m -43.038889,0.70555 -1.41111,1.76389 1.41111,-1.76389 m 23.63611,0 0.35278,0.35278 -0.35278,-0.35278 m 8.46667,0 0.35278,0.35278 -0.35278,-0.35278 m 9.877779,0 -2.116669,1.41111 v 0.35278 l 2.116669,-1.76389 m -49.388889,0.35278 -1.76389,1.76389 1.76389,-1.76389 m 4.23333,0 -1.41111,1.76389 1.41111,-1.76389 m 47.977779,0 -0.35278,0.70555 0.35278,-0.70555 m 10.93611,0 0.35278,0.35278 -0.35278,-0.35278 m -33.161109,0.35278 0.35278,0.35277 -0.35278,-0.35277 m 8.81944,0 -0.70555,1.41111 h 0.35278 l 0.35277,-1.41111 m 21.872229,0 -7.40834,5.64444 v 0.35278 c 2.37385,-1.10949 6.74935,-3.28119 7.40834,-5.99722 m -9.525,0.35277 -4.938889,3.175 v 0.35278 c 1.710259,-0.50341 4.459809,-1.67957 4.938889,-3.52778 m -34.572229,0.35278 v 0.35278 h 2.46945 l -2.46945,-0.35278 m 14.11112,0.35278 v 0.35278 l 1.76388,-0.35278 h -1.76388 m 11.28888,-0.35278 0.35278,0.35278 -0.35278,-0.35278 m -44.45,0.35278 -1.41111,1.76389 1.41111,-1.76389 m 4.23334,0 -1.05834,1.76389 1.05834,-1.76389 m 3.175,0 -1.76389,2.11667 1.76389,-2.11667 m 23.28333,0 -0.35278,0.70556 h 0.70556 l -0.35278,-0.70556 m 15.16945,0 0.35277,0.35278 -0.35277,-0.35278 m 3.175,0 0.35277,0.35278 -0.35277,-0.35278 m -55.38612,0.35278 -0.70555,2.11666 h -0.35278 l 1.05833,-2.11666 m 33.16112,0.70555 v 0.35278 l 3.175,-0.70555 -3.175,0.35277 m 9.17222,-0.70555 0.35278,0.35278 -0.35278,-0.35278 m 3.88055,0 -4.93889,3.88055 v 0.35278 c 1.69828,-0.47942 4.49051,-2.49661 4.93889,-4.23333 m 3.88056,0 0.35278,0.35278 -0.35278,-0.35278 m 1.41111,0 0.35278,0.35278 -0.35278,-0.35278 m -10.23056,0.35278 0.35278,0.35277 -0.35278,-0.35277 m 8.11389,0 -7.76111,5.64444 c 2.36044,-1.10208 7.08413,-2.87373 7.76111,-5.64444 m 20.813889,0 0.35278,0.35277 -0.35278,-0.35277 m 2.82223,0 -1.05834,1.76388 h 0.35278 l 0.70556,-1.76388 m 3.175,0 -0.70556,1.05833 0.70556,-1.05833 m -36.336119,0.35277 -1.76389,0.70556 v 0.35278 l 2.11667,-0.70556 -0.35278,-0.35278 m -35.63055,0.35278 -1.05834,1.05833 1.05834,-1.05833 m 4.23333,0 -1.05833,1.41111 1.05833,-1.41111 m 3.175,0 -2.11667,2.46945 2.11667,-2.46945 m 14.81667,0 0.35278,0.35278 -0.35278,-0.35278 m 1.41111,0 0.35278,0.35278 -0.35278,-0.35278 m -27.16389,0.35278 -1.05833,1.76389 1.05833,-1.76389 m 1.76389,0 -1.41111,1.41111 0.35278,-1.41111 h 1.05833 m 31.04444,1.41111 4.23334,-1.41111 c -1.60338,0.0332 -3.24662,0.0272 -4.23334,1.41111 m 35.983339,-1.41111 -2.46945,3.52778 2.46945,-3.52778 m 8.46666,0 -0.35277,1.05833 0.35277,-1.05833 m -26.458329,0.35278 -4.58611,3.52777 4.58611,-3.52777 m 23.636109,0 -0.35278,1.05833 0.35278,-1.05833 m -68.438889,0.35277 -1.41111,1.76389 1.41111,-1.76389 m 75.84723,0 -0.35278,0.70556 0.35278,-0.70556 m 2.82222,0 -0.70556,0.70556 0.70556,-0.70556 m -14.111111,0.35278 0.35277,0.35278 -0.35277,-0.35278 m -62.088889,0.35278 -0.70556,0.70556 0.70556,-0.70556 m 11.17141,0.11748 0.23495,0.11782 -0.23495,-0.11782 m 31.16192,-0.11748 0.35278,0.35278 -0.35278,-0.35278 m 25.752779,0 -1.76389,2.82222 1.76389,-2.82222 m -55.738889,0.35278 0.35278,0.35278 -0.35278,-0.35278 m 7.05555,0 0.35278,0.35278 -0.35278,-0.35278 m 4.93889,0 v 0.35278 l 5.64445,0.35277 v -0.35277 l -5.64445,-0.35278 m 37.041669,0 0.35278,0.35278 -0.35278,-0.35278 m 3.88056,0 -0.35278,0.70555 0.35278,-0.70555 m -69.849999,0.35278 -1.05834,1.41111 v -1.41111 h 1.05834 m -1.76389,0.35277 -1.41111,1.76389 0.70555,-1.76389 h 0.70556 m 4.93889,0 -1.76389,1.76389 1.76389,-1.76389 m 63.852769,0 0.35278,0.35278 -0.35278,-0.35278 m 8.11389,0 0.35278,0.35278 -0.35278,-0.35278 m -22.4603,0.58808 0.11783,0.23495 -0.11783,-0.23495 m 13.64086,-0.2353 -1.05833,1.41111 1.05833,-1.41111 m -73.377779,0.35278 -1.41111,2.82222 1.41111,-2.82222 m 37.04167,0 0.35277,0.35278 -0.35277,-0.35278 m 3.52777,0.70555 v 0.35278 l 2.46945,-0.70555 -2.46945,0.35277 m -37.39444,-0.35277 -1.41111,1.76389 1.41111,-1.76389 m 4.58611,0 c -0.002,1.42381 -0.50447,2.16711 -1.76389,2.82222 l 1.76389,-2.82222 m 15.875,0 0.35278,0.35277 -0.35278,-0.35277 m 0.70556,0 0.35277,0.35277 -0.35277,-0.35277 m 1.76389,0 0.35277,0.35277 -0.35277,-0.35277 m 0.35277,1.05833 v 0.35278 l 4.93889,-1.05834 -4.93889,0.70556 m 8.81945,-1.05833 v 0.35277 h 1.05833 l -1.05833,-0.35277 m 10.93611,2.11666 v 0.35278 h 1.05833 l -0.70555,1.05834 6.35,-3.17501 -6.70278,1.76389 m 9.525,-2.11666 -6.70278,4.23333 v 0.35278 c 2.09973,-0.71614 6.10094,-2.25707 6.70278,-4.58611 m 3.174999,0 -4.586109,3.52778 v 0.35277 c 1.43086,-0.62547 4.631619,-2.12266 4.586109,-3.88055 m 22.57778,0 -0.35278,0.70555 0.35278,-0.70555 m -80.080559,0.35277 -0.70555,1.76389 h -0.35278 l 1.05833,-1.76389 m 30.33889,0.70556 3.175,-0.35278 c -1.08973,-0.4572 -2.36114,-0.57891 -3.175,0.35278 m 15.875,-0.35278 v 0.35278 l 1.41111,-0.35278 h -1.41111 m 17.991669,-0.35278 -18.344449,13.40556 v 0.35278 c 5.0165,-2.08527 7.54521,-5.66526 11.994449,-8.35766 2.00166,-1.21144 5.75768,-2.98556 6.35,-5.40068 m 17.28611,0 0.352781,0.35278 -0.352781,-0.35278 m -43.156369,0.47026 0.23495,0.11783 -0.23495,-0.11783 m 31.867479,-0.11748 0.35278,0.35278 -0.35278,-0.35278 m -32.808329,0.35278 0.35277,0.35278 -0.35277,-0.35278 m 7.99641,0.11748 0.23495,0.11782 -0.23495,-0.11782 m 14.581359,-0.11748 -4.938889,4.23333 c 1.58645,-0.84455 4.797079,-2.23661 4.938889,-4.23333 m 16.22778,0 -0.35278,0.70556 0.35278,-0.70556 m 3.175,0 0.35278,0.35278 -0.35278,-0.35278 m 1.76389,0 -2.82222,3.88056 c 1.30916,-0.93063 2.81869,-2.16465 2.82222,-3.88056 m -76.552779,0.35278 -1.41111,1.41111 1.41111,-1.41111 m 13.75834,0 0.35277,0.35278 -0.35277,-0.35278 m 4.82141,0.11747 0.23495,0.11783 -0.23495,-0.11783 m 1.05833,0 0.23495,0.11783 -0.23495,-0.11783 m 18.8147,-0.11747 0.35278,0.35278 -0.35278,-0.35278 m 26.105559,0 0.35277,0.35278 -0.35277,-0.35278 m -3.52778,0.35278 -8.819449,5.99722 v 0.35278 c 2.246489,-0.64841 8.882949,-3.68441 8.819449,-6.35 m -57.502779,0.35277 -0.35278,0.35278 0.35278,-0.35278 m 29.98611,0 v 0.35278 h 1.05833 l -1.05833,-0.35278 m 29.986109,0 -0.70555,1.05834 0.70555,-1.05834 m 7.05556,0 0.35278,0.35278 -0.35278,-0.35278 m -52.916669,0.70556 v 0.35278 h 8.81945 l -8.81945,-0.35278 m 13.75833,-0.35278 v 0.35278 h 1.76389 l -1.76389,-0.35278 m 41.627779,0 0.35278,0.35278 -0.35278,-0.35278 m -75.494439,0.35278 -1.05834,1.05833 0.35278,-1.05833 h 0.70556 m 29.51586,0.11747 0.23495,0.11783 -0.23495,-0.11783 m -28.10475,0.23531 -0.35278,0.35278 0.35278,-0.35278 m 16.22778,0 0.35277,0.35278 -0.35277,-0.35278 m 46.919439,0 -0.35278,0.70555 0.35278,-0.70555 m 7.40834,0 -4.58612,5.64444 5.64445,-5.29166 -1.05833,-0.35278 M 40.09908,160.1613 v 0.35277 l 5.99723,1.05834 -5.99723,-1.41111 m 47.272229,0 -0.35278,0.70555 0.35278,-0.70555 m -69.144449,0.35277 -1.41111,1.05834 1.41111,-1.05834 m 52.21111,0 0.35278,0.35278 -0.35278,-0.35278 m -57.85555,0.35278 -2.11667,2.82222 2.11667,-2.82222 m 41.62777,0 v 0.35278 h 1.41112 l -1.41112,-0.35278 m 13.75834,0 -5.64445,4.23333 v 0.35278 c 1.8722,-0.80786 5.08036,-2.51989 5.64445,-4.58611 m 15.522219,1.05833 1.05833,-1.05833 -1.05833,1.05833 M 16.11019,161.21963 v 0.70555 h -0.70555 v -0.70555 h 0.70555 m 33.86667,0 0.35278,0.35278 -0.35278,-0.35278 m 0.70556,0 v 0.35278 h 2.11666 l -2.11666,-0.35278 m 14.46389,0 0.35277,0.35278 -0.35277,-0.35278 m 21.166659,0 -6.35,4.93889 c 2.06799,-0.18839 5.84341,-2.85715 6.35,-4.93889 m 8.81945,0 -3.52778,3.52778 3.52778,-3.52778 m -81.138889,0.35278 -1.41111,1.41111 1.41111,-1.41111 m 21.87222,0 v 0.35277 h 1.05833 l -1.05833,-0.35277 m 28.575,0 -3.175,2.11666 v 0.35278 l 3.175,-2.46944 m 7.76111,0 -0.35278,1.05833 0.35278,-1.05833 m -34.925,0.35277 v 0.35278 h 1.05833 l -1.05833,-0.35278 m 2.46945,0 0.35277,0.35278 -0.35277,-0.35278 m 0.70555,0.70556 5.99722,0.35278 c -1.5882,-0.70873 -4.49721,-1.3335 -5.99722,-0.35278 m 20.81389,-0.70556 0.35278,0.35278 -0.35278,-0.35278 m 21.519449,0 0.35277,0.35278 -0.35277,-0.35278 m -13.758339,0.35278 -5.29167,4.23334 v 0.35277 c 1.98967,-0.83396 4.75086,-2.35479 5.29167,-4.58611 m -52.56389,0.35278 -1.41111,1.05833 v -0.35277 l 1.41111,-0.70556 m 42.33334,0 0.35277,0.35278 -0.35277,-0.35278 m 15.16944,3.88056 v 0.35277 l 8.466669,-3.88055 -8.466669,3.52778 m -53.975,-3.52778 -0.35278,0.35278 0.35278,-0.35278 m 50.8,0 c -2.19604,3.10903 -5.39962,4.59422 -8.81944,5.99722 v 0.35278 c 3.83434,-0.57432 7.43585,-3.11997 9.525,-6.35 h -0.70556 m 43.39167,0.35278 v 0.35277 h 1.05833 l -1.05833,-0.35277 m -99.83611,0.35277 -1.76389,1.05834 1.76389,-1.05834 m 27.86944,0 v 0.35278 l 3.52778,0.35278 v 0.35278 h -2.82222 v 0.35277 l 5.29166,-0.35277 v -0.70556 l -5.99722,-0.35278 m -29.98611,0.35278 -1.41111,1.41111 1.41111,-1.41111 m 37.04167,0 0.35277,0.35278 -0.35277,-0.35278 m 10.93611,0 -0.35278,0.70556 0.35278,-0.70556 m -9.17223,1.41111 3.52778,0.35278 v 0.35278 l -3.175,0.70555 0.35278,0.70556 c -1.92828,0.32773 -5.64656,0.80151 -6.35,2.82222 h 3.175 l -1.41111,1.05833 v 0.35278 l 9.17222,-0.35278 v -0.35277 h -5.99722 v -0.35278 l 3.88055,-0.70556 v -0.35277 l -1.05833,-0.35278 5.29167,-2.46945 v -0.35277 c -3.70417,1.54199 -7.17621,3.49355 -11.28889,3.52777 v -0.35277 l 10.23055,-4.23334 h -6.35 m 6.93809,-0.58808 0.23495,0.11783 -0.23495,-0.11783 m -23.51864,0.58808 v 0.35278 l 1.41111,0.35278 v -0.35278 l -1.41111,-0.35278 m 14.11111,0.35278 v 0.35278 l 2.11667,-0.35278 h -2.11667 m 10.93611,-0.35278 0.35278,0.35278 -0.35278,-0.35278 m 19.049999,0 v 0.70556 l 0.70556,-0.70556 h -0.70556 m 8.46667,0 -0.35278,0.70556 0.35278,-0.70556 m 26.458331,0 -0.35278,0.35278 0.35278,-0.35278 M 9.05464,165.80574 7.9963,166.5113 9.05464,165.80574 m 34.925,0 0.35278,0.35278 -0.35278,-0.35278 m 44.449999,0 -0.35278,0.70556 0.35278,-0.70556 m 1.41111,0 -0.35278,0.35278 0.35278,-0.35278 m -53.622219,0.35278 v 0.35278 h 1.05833 l -1.05833,-0.35278 m 3.88055,0.35278 v 0.35277 l 8.46667,0.70556 v -0.35278 l -5.99722,-0.35278 v -0.35277 h 0.70555 -3.175 m 5.99723,-0.35278 v 0.35278 h 2.11666 l -2.11666,-0.35278 m 31.749999,0 -3.527779,2.82222 v 0.35278 c 1.478489,-0.57291 3.135489,-1.56281 3.527779,-3.175 M 37.98242,166.5113 v 0.35277 h 1.41111 l -1.41111,-0.35277 m -27.86945,0.82303 0.11748,0.11782 c -0.17392,0.0579 -0.39018,-0.11782 -0.11748,-0.11782 m 22.57778,0.2353 v 0.35278 h -3.175 v -0.70556 l 3.175,0.35278 m 16.22778,-0.35278 v 0.35278 h 1.05833 l -1.05833,-0.35278 m 43.744439,0 v 0.70556 h 0.70556 v -0.70556 h -0.70556 m -71.261109,0.35278 0.35278,0.35278 -0.35278,-0.35278 m 51.15278,0 -2.82222,2.11667 v 0.35277 l 2.82222,-2.46944 m -53.62222,0.35278 v 0.35277 h 2.11666 l -2.11666,-0.35277 m 17.99166,0 0.35278,0.35277 -0.35278,-0.35277 m 5.29167,0 0.35278,0.35277 -0.35278,-0.35277 m 0.70556,0 0.35277,0.35277 -0.35277,-0.35277 m -2.46945,0.35277 v 0.35278 h 1.05833 l -1.05833,-0.35278 m 17.28611,0.35278 v 0.35278 l 1.76389,-0.35278 h -1.76389 m 28.574999,-0.35278 -2.46944,2.11667 2.46944,-2.11667 m 1.41111,0.35278 -1.41111,1.05834 1.41111,-1.05834 m -31.044439,0.35278 0.35278,0.35278 -0.35278,-0.35278 m 3.175,0.70556 0.35278,1.05833 -7.05556,2.11667 v 0.35277 c 3.31047,-0.009 6.45972,-1.11442 8.46667,-3.88055 l -1.76389,0.35278 m -17.75637,0.47025 0.23495,0.11783 -0.23495,-0.11783 m 1.17581,-0.11748 v 0.35278 h 1.41111 l -1.41111,-0.35278 m 25.75278,0 0.35278,0.35278 -0.35278,-0.35278 m -33.86667,0.35278 v 0.35278 h -1.05833 l 1.05833,-0.35278 m 43.391669,0.11748 0.11748,0.11782 c -0.17392,0.0579 -0.39018,-0.11782 -0.11748,-0.11782 m -16.580549,0.94085 1.76388,-0.35277 -1.76388,0.35277 m 7.76111,-0.35277 0.35277,0.35277 -0.35277,-0.35277 m -32.45556,0.70555 v 0.35278 l -3.52778,0.35278 3.52778,-0.70556 m 23.63611,0.35278 0.35278,0.35278 -0.35278,-0.35278 m -22.57778,0.47025 c 0.2727,0 0.0565,0.17569 -0.11747,0.11783 l 0.11747,-0.11783 m 70.20278,0.23531 v 0.35277 l -1.41111,-0.35277 h 1.41111 m -57.85555,0 v 0.35277 l 2.11666,0.35278 v -0.35278 l -2.11666,-0.35277 m -3.88056,0.35277 0.35278,0.35278 -0.35278,-0.35278 m 0.70556,0 0.35277,0.35278 -0.35277,-0.35278 m 20.10833,0 v 0.35278 l -1.76389,0.70556 1.76389,-1.05834 m -9.87778,0.82303 c 0.2727,0 0.0564,0.17569 -0.11747,0.11783 l 0.11747,-0.11783 m 4.58611,-0.11747 v 0.35278 l -2.11666,0.35277 2.11666,-0.70555 m -18.69722,1.05833 v 0.35278 l -3.52778,-0.35278 h 3.52778 m 7.05556,-0.35278 -0.35278,0.35278 0.35278,-0.35278 m 15.16944,0 -0.70555,2.11667 h -0.35278 l 0.35278,-2.11667 h 0.70555 m 1.41111,0.35278 0.35278,1.05834 1.41111,-0.35278 0.70556,1.05833 v 0.35278 l -1.05834,2.11667 h -0.35277 l 0.35277,-2.11667 -1.76389,0.70555 0.70556,-1.76388 -0.35278,-1.05834 m -16.58055,0.35278 2.11666,1.41111 v 0.35278 l -5.29166,-1.05833 3.175,-0.70556 m 2.46944,0 v 0.35278 h -1.05833 l 1.05833,-0.35278 m 17.16864,0.2353 -0.11783,0.23495 0.11783,-0.23495 m -43.97975,1.88137 v 0.70555 l 13.75833,1.64183 5.99723,1.88595 c -1.09891,-2.11384 -3.50027,-2.4444 -5.64445,-2.97674 -4.81965,-1.19662 -9.1567,-1.25659 -14.11111,-1.25659 m 11.87697,-0.23531 0.23495,0.11783 -0.23495,-0.11783 m 0.82303,-0.11747 v 0.35278 h 1.76389 l -1.76389,-0.35278 m 22.93056,0.11747 c 0.27269,0 0.0564,0.17569 -0.11748,0.11783 l 0.11748,-0.11783 m -37.74723,0.23531 v 0.35277 h 1.76389 l -1.76389,-0.35277 m 17.99167,0 v 0.35277 c 7.62318,0.32738 13.96506,4.28661 21.16667,5.99723 -5.30472,-4.39526 -14.43038,-6.34542 -21.16667,-6.35 m 34.219439,1.05833 -0.70555,3.175 0.70555,0.70556 -1.058329,0.35277 v 0.35278 h 1.058329 l -0.70555,0.70556 v 0.35277 l 1.76389,1.76389 c 1.5688,-2.46662 5.30119,1.08374 7.40833,1.41111 l -5.99052,-4.30882 -2.47615,-4.51062 m -31.044439,0.35278 0.35278,0.35278 -0.35278,-0.35278 m 16.93333,0.35278 -1.76389,-0.35278 1.76389,0.35278 m -16.22777,0 v 0.35277 h 1.05833 l -1.05833,-0.35277 m 1.41111,0.35277 v 0.35278 h 1.05833 l -1.05833,-0.35278 m 1.76389,0.35278 v 0.35278 l 9.525,4.23333 v -0.35278 l -9.525,-4.23333 m 17.63888,0.11748 c 0.2727,0 0.0565,0.17568 -0.11747,0.11782 l 0.11747,-0.11782 m 16.345259,0.11782 0.11783,0.23495 -0.11783,-0.23495 m -42.098029,0.82303 0.35277,0.35278 -0.35277,-0.35278 m 1.76389,0.35278 v 0.35278 h 1.05833 l -1.05833,-0.35278 m 21.51944,0 2.11667,1.41111 -2.11667,-1.41111 m -43.74444,0.70556 v 0.35278 c 12.95823,0.55633 23.85624,6.03285 35.98333,9.525 -6.88799,-5.71254 -18.18076,-8.03487 -26.81111,-9.26783 -2.93441,-0.4191 -6.26322,-1.46967 -9.17222,-0.60995 m 68.438889,-0.35278 1.05833,0.70556 v -0.35278 l -1.05833,-0.35278 m 3.175,0.35278 -1.05834,1.05833 v 0.35278 l 1.76389,-0.35278 -0.70555,-1.05833 m -81.138889,0.35278 0.35277,0.35277 -0.35277,-0.35277 m 0.70555,0.35277 v 0.35278 l 16.22778,4.38679 11.28889,4.43266 v -0.35278 c -8.27723,-4.41255 -18.20157,-7.61647 -27.51667,-8.81945 m 40.09919,2.58692 0.23495,0.11783 -0.23495,-0.11783 m 0.82303,0.23531 v 0.35277 h 1.05834 l -1.05834,-0.35277 m 1.41111,0.35277 0.35278,0.35278 -0.35278,-0.35278 m -38.80555,0.35278 c 1.65065,2.72768 8.63106,3.99098 11.64167,4.70817 10.31134,2.45569 19.57599,7.58614 29.63333,10.46128 v -0.35278 l -21.16667,-8.93551 -20.10833,-5.88116 m 39.86389,0 v 0.35278 l 2.82222,0.70555 v -0.35277 l -2.82222,-0.70556 m 21.166659,0 v 0.35278 l 1.05834,0.35278 -0.35278,1.05833 h 1.05833 l -0.35277,1.05833 2.11666,1.41111 -0.35278,-2.11666 2.11667,-0.70556 v -0.35278 l -2.82222,0.70556 v -1.41111 l -2.46945,-0.35278 m -38.452769,2.11667 v 0.35278 h 1.05833 l -1.05833,-0.35278 m 49.741659,0 1.05834,0.70555 v -0.35277 l -1.05834,-0.35278 M 39.74631,188.7363 v 0.35277 c 6.54155,0.88159 13.24222,4.14161 19.05,7.14658 2.04434,1.05798 3.81247,2.71215 5.99722,3.43676 -1.93569,-2.52342 -4.94736,-3.89114 -7.76111,-5.21406 -5.38198,-2.53012 -11.28431,-5.24439 -17.28611,-5.72205 m 15.52222,0 0.35278,0.35277 -0.35278,-0.35277 m 31.749999,0.35277 0.35278,0.35278 -0.35278,-0.35278 m 2.11667,0 1.05833,0.70556 v -0.35278 l -1.05833,-0.35278 m -3.175,0.35278 0.35277,0.35278 -0.35277,-0.35278 m -24.694449,1.05833 0.35278,0.35278 -0.35278,-0.35278 m 30.338889,0 2.11667,2.11667 v -1.76389 l -2.11667,-0.35278 m -29.633329,0.35278 0.35277,0.35278 -0.35277,-0.35278 m 1.29363,0.47025 0.23495,0.11783 -0.23495,-0.11783 m 0.82303,0.23531 v 0.35278 l 3.88056,1.76388 -3.88056,-2.11666 m 37.04167,0 1.76389,0.70555 v 0.35278 l -2.11667,-0.70555 0.35278,-0.35278 m -6.702781,0.70555 v 0.70556 l 0.70556,-0.70556 h -0.70556 m -63.499999,2.82223 0.35278,0.35277 -0.35278,-0.35277 m 1.64641,0.47025 0.23495,0.11783 -0.23495,-0.11783 m 2.9397,0.58808 0.35278,0.35278 -0.35278,-0.35278 m 47.272229,0 0.70555,1.41111 -0.70555,-1.41111 m -45.861119,0.35278 0.35278,0.35277 -0.35278,-0.35277 m 1.05834,0.35277 0.35277,0.35278 z"
     id="path909" /></svg>
